<?xml version="1.0" encoding="iso-8859-1"?>
<!-- Generator: Adobe Illustrator 23.0.1, SVG Export Plug-In . SVG Version: 6.00 Build 0)  -->
<svg version="1.1" xmlns="http://www.w3.org/2000/svg" xmlns:xlink="http://www.w3.org/1999/xlink" x="0px" y="0px"
	 viewBox="0 0 728.504 515.906" style="enable-background:new 0 0 728.504 515.906;" xml:space="preserve">
<g id="&#x30EC;&#x30A4;&#x30E4;&#x30FC;_1">
</g>
<g id="&#x30EC;&#x30A4;&#x30E4;&#x30FC;_4">
</g>
<g id="&#x30EC;&#x30A4;&#x30E4;&#x30FC;_3">
	<path style="fill:#FFFFFF;" d="M189.54,133.113c0,0,15.531-8.53,20.746-7.963c0,0-14.763,30.537-14.103,36.149
		c0,0-0.034,6.979,5.521,8.797c0,0,2.625,0.822,4.432,0.776c1.807-0.046,66.903-3.704,56.103,14.21c0,0-10.003,5.516-22.127,9.24
		l-14.806,3.314c0,0-21.433,4.768-25.527,12.936c0,0,22.487-2.173,35.014,10.339c0,0,36.762,27.7,6.634,68.01
		c0,0-3.329-4.322-9.472-6.512c0,0,18.807-15.968,8.028-35.196c0,0-5.901-15.045-36.891-20.924c0,0-48.92-10.84-9.517-33.147
		c0,0,9.597-4.159,11.231-6.115C204.805,187.027,168.13,183.812,189.54,133.113z"/>
	<path style="fill:#FAE300;" d="M244.252,186.936c0,0,2.541,3.202-2.91,5.174c-5.451,1.972-13.626,5-13.626,5
		s-42.64,8.665-25.118,26.129c0,0,1.505,1.987,3.483,3.579c0,0-10.675-2.413-17.975-5.92c0,0-16.967-7.6-6.625-18.948
		c0,0,3.982-4.834,14.208-9.781c0,0,6.342-2.57,9.124-5.141c0,0,4.528,1.982,25.979-1.512
		C230.792,185.515,238.58,183.965,244.252,186.936z"/>
	<path style="fill:#FFFFFF;" d="M244.626,212.464l7.813,11.294c0,0,16.066,3.378,20.554,12.15c0,0-18.253,5.033-20.691,8.741
		C252.302,244.65,207.714,224.04,244.626,212.464z"/>
	<path style="fill:#FAE300;" d="M244.626,212.464l7.813,11.294C252.439,223.758,234.599,219.034,244.626,212.464z"/>
	<path style="fill:#FFFFFF;" d="M289.447,190.465c0,0-17.62,1.131-26.293,12.229c0,0-8.819,10.684,13.992,15.944
		C277.146,218.638,296.581,197.763,289.447,190.465z"/>
	<path style="fill:#FAE300;" d="M284.488,205.368c0,0-19.195,2.006-11.495-4.709c0,0,12.56-8.359,15.947-7.966
		C288.94,192.692,286.801,200.688,284.488,205.368z"/>
	<path style="fill:#FAE300;" d="M309.802,181.636c0,0,5.984-5.499,6.616-7.171c0,0,2.154,4.999,3.552,5.652
		c1.398,0.653,6.259,9.781,1.157,16.963c0,0-5.762-0.494-13.922,3.344C307.206,200.424,310.526,190.149,309.802,181.636z"/>
	<path style="fill:#FFFFFF;" d="M307.362,200.08c0,0-4.049,12.373-7.485,18.067c0,0,4.628-0.446,9.485-2.856
		s20.45-5.701,22.768,1.674c0,0,5.259-5.523,6.335-5.746C338.464,211.218,334.036,188.897,307.362,200.08z"/>
	<path style="fill:#FAE300;" d="M328.64,213.507l-2.18,9.731l13.125,6.053v-7.222c0,0-7.782-0.928-11.343-0.164
		c0,0,3.25-4.748,3.887-4.942C332.13,216.965,331.796,214.795,328.64,213.507z"/>
	<path style="fill:#FFFFFF;" d="M321.353,232.736l-8.432-13.527c0,0-11.845,7.669-8.789,13.752
		c3.056,6.083,13.43,9.601,21.644,11.131c8.214,1.53,19.737,3.344,22.905,8.163l19.716-5.847
		C368.397,246.407,359.383,232.226,321.353,232.736z"/>
	<path style="fill:#FAE300;" d="M321.353,232.736c0,0-18.651,1.27-8.432-13.527L321.353,232.736z"/>
	<path style="fill:#FFFFFF;" d="M344.758,151.597c0,0,5.296-5.944,25.685-14.301c0,0-9.551,12.071-13.031,20.905
		c0,0-6.213,11.977-8.357,31.885c0,0,11.283,6.412,20.328,6.39c0,0,35.555,5.834,18.992,15.175c0,0-9.119,3.978-11.746,3.974
		c0,0-13.16,0.629-14.24,0.811c0,0-10.959,1.005-17.505,7.79c0,0-2.314-3.641-16.641-2.308c0,0,6.788-10.865,20.682-16.856
		c0,0-9.733-5.81-9.338-24.3C339.586,180.76,338.566,171.545,344.758,151.597z"/>
	<path style="fill:#FFFFFF;" d="M344.779,151.577c0,0,4.631-5.299,25.797-14.439c0,0-12.173,15.482-16.852,30.517
		c0,0-4.59,14.695-4.697,22.414c0,0,8.647,4.875,11.479,4.953c0,0,5.461,1.58,7.372,1.367s37.336,5.6,20.497,15.262
		c0,0-12.102,4.868-12.317,4.645c-0.215-0.223-0.215-0.223-0.215-0.223l-12.44,0.23c0,0-13.305,1.075-18.518,7.922
		c0,0-3.956-3.828-16.641-2.308c0,0,6.979-10.294,20.686-16.753C348.928,205.164,330.915,194.88,344.779,151.577z"/>
	<path style="fill:#FAE300;" d="M344.613,151.758c0,0,6.348-6.904,25.963-14.62c0,0-22.066,25.124-22.182,61
		c0,0,1.267,6.117,4.11,8.959C353.084,206.794,329.656,202.624,344.613,151.758z"/>
	<path style="fill:#FAE300;" d="M348.924,205.061c0,0,4.899,3.196,7.221,3.204c0,0,8.028-0.134,9.892,1.858
		c2.741,2.93,1.141,4.051,1.141,4.051l-4.454,0.757c0,0,0.731,0.924,0.746,1.234l-0.384,0.163c0,0-12.49,1.505-18.204,7.897
		c0,0-2.883-3.721-16.641-2.308C328.242,221.917,335.805,210.328,348.924,205.061z"/>
	<path style="fill:#FFFFFF;" d="M438.231,160.269c0,0-9.168,14.322-10.48,14.94c0,0-4.908,12.352-6.377,14.664
		c0,0-6.24,13.418-10.564,17.705c0,0-3.153,5.806-3.524,9.765c0,0-6.632,2.659-8.816,3.682c0,0-12.836,6.338-13.564,7.097
		s-12.75,7.153-12.036,13.217c0.714,6.064,6.13,22.087,70.811,19.508c0,0-10.381-12.46-10.345-14.293c0,0-25.701,2.489-42.944-3.569
		c0,0-3.737-5.172,18.362-10.929c0,0,2.403,6.309,7.188,6.833c0,0,9.707,2.87,15.675,1.738c0,0,15.728-2.963,18.148-14.872
		c0,0-0.394-6.011-6.368-11.904c0,0-6.669-6.63-16.484-3.761c0,0,2.944-9.778,4.751-12.69c0,0,2.607-5.036,3.054-14.782
		C434.718,182.617,435.41,175.09,438.231,160.269z"/>
	<path style="fill:#FAE300;" d="M424.02,226.285c0,0,7.428-3.988,12.527-4.062c5.098-0.074,10.975,1.239,6.907,7.069
		c-4.068,5.83-11.199,7.965-11.199,7.965S423.303,238.147,424.02,226.285z"/>
	<path style="fill:#FAE300;" d="M407.306,217.233c0,0-1.388,9.151,1.447,14.824c0,0-20.939,4.786-18.362,10.929
		c0,0-14.639-4.312-1.724-16.532l9.621-1.011c0,0,0.916-1.523,0.395-4.515L407.306,217.233z"/>
	<path style="fill:#FFFFFF;" d="M465.029,245.682l8.86,12.911c0,0-28.406,8.332-29.718-6.815c0,0-0.864-8.984,9.62-17.032
		c0,0,14.697-11.767,25.976-14.346c0,0,26.955-10.61,42.425,2.493c0,0,10.883,8.734,6.708,20.359c0,0-0.864,9.056-19.71,20.189
		c0,0-14.814,7.678-27.695,11.817c0,0-16.717,6.6-16.638,10.087c0,0,15.511,12.076,17.31,13.778l-4.138,18.103
		c0,0-2-2.674-7.443-6.738l-15.775-11.505c0,0-7.499-6.576-1.867-16.622c0,0,7.279-12.541,25.934-21.028
		c0,0,27.132-13.879,32.599-14.855c0,0,1.131-0.824-3.901-6.265C507.575,240.214,494.974,225.075,465.029,245.682z"/>
	<path style="fill:#FAE300;" d="M465.029,245.682c0,0-20.277,4.231-15.258-2.696s17.597-17.283,19.498-18.194
		c1.901-0.911,26.774-13.205,44.689-6.633c0,0,11.706,3.87,11.339,13.176c0,0-0.037,8.673-13.404,14.952l-0.778-1.226
		C511.115,245.061,500.483,221.658,465.029,245.682z"/>
	<path style="fill:#FAE300;" d="M478.028,317.228l4.138-18.103c0,0-13.306-10.528-17.424-14.021c0,0-4.658-5.323,1.26-11.425
		c5.918-6.102,15.016-13.495,15.016-13.495s-18.343,9.631-22.237,14.999c0,0-14.945,11.79-3.683,24.114
		C455.097,299.297,478.045,314.715,478.028,317.228z"/>
	<path style="fill:#FFFFFF;" d="M315.551,260.075c0,0-8.565,11.904-8.678,18.497c0,0,8.337,10.974,8.723,28.127
		c0,0-0.026,12.633,9.292,21.626c0,0,7.487,7.631,18.072,7.126c0,0,9.781-0.619,11.402,7.488c0,0-6.915,11.257-32.336,12.08
		c0,0-1.669,4.447-13.201,15.281c0,0,22.711-1.226,33.608-8.55c0,0,14.692-7.667,20.66-18.788c0,0,9.128-13.325-5.358-17.799
		c0,0-12.124-1.954-23.269-9.977c0,0-7.325-5.545-6.086-12.463C328.382,302.725,332.56,287.119,315.551,260.075z"/>
	<path style="fill:#FFFFFF;" d="M372.939,334.597c0,0,14.753-7.49,17.863-7.511c0,0,2.571,11.646-7.297,21.487
		c0,0-8.177,6.405-9.957,12.006c0,0-6.228-5.184-12.382-4.466c0,0,5.177-10.321,10.658-12.281
		C371.823,343.833,373.175,340.337,372.939,334.597z"/>
	<path style="fill:#FFFFFF;" d="M408.51,339.678l23.766,4.155l1.802,0.939c0,0,1.016,1.963-4.061,5.487
		c-5.077,3.524-19.475,8.515-29.054,11.104c0,0-9.452,4.151-10.936,7.664c0,0-0.328,2.124,2.62,3.636s6.421,3.314,9.95,3.678
		l0.362,0.269c0,0-1.773,8.755,10.368,12.488l2.942,0.46c0,0,4.105,9.404-2.984,22.707c0,0,0.96-3.195-3.305-7.842
		c0,0-9.109-8.431-14.575-11.41c0,0-10.097-7.538-13.804-12.55c0,0-8.478-8.799-5.66-15.837c0,0,2.349-8.349,15.479-16.165
		C391.42,348.462,406.022,340.014,408.51,339.678z"/>
	<path style="fill:#FAE300;" d="M390.015,368.929c0,0-4.661,4.985-4.159,11.745c0,0,0.064,1.932,1.569,5.847
		c0,0,10.656,8.932,12.43,9.711c1.774,0.779,3.135,2.309,7.784,5.914c4.649,3.604,6.145,8.548,5.495,10.382
		c0,0,7.032-11.203,3.134-22.97c0,0-0.404-0.12-3.636-0.709c0,0-9.189-1.486-9.802-12.41c0,0-1.852-0.57-4.653-1.259
		C398.177,375.18,389.739,373.391,390.015,368.929z"/>
	<path style="fill:#FFFFFF;" d="M447.276,342.579c0,0-6.023,7.936-6.287,9.073c0,0-1.177,0.024-4.203,1.919
		c0,0-1.624,5.115,1.345,17.93l6.976-3.747c0,0,8.106-2.678,9.53-3.307c1.424-0.629,18.981-7.111,8.966-18.7
		C463.602,345.747,451.823,342.841,447.276,342.579z"/>
	<path style="fill:#FAE300;" d="M441.099,351.472c0,0-3.25,1.427-4.313,2.099c0,0-1.567,1.766,1.3,17.726h0.315l5.966-3.219
		c0,0,2.159-1.086,2.69-0.934c0.531,0.152,6.546-2.181,7.448-3.729c0.901-1.549,1.616-2.785-3.861-4.543
		c-5.478-1.758-12.601-2.252-12.601-2.252L441.099,351.472z"/>
	<path style="fill:#FFFFFF;" d="M524.192,286.802c0,0,1.543,2.638,31.535-1.456c0,0-5.826,9.425-20.987,17.957
		c0,0-17.046,9.72-34.452,15.035c0,0-4.733,1.443-4.842,2.046c0,0-1.976,8.055,3.365,12.809c0,0,4.591,5.623,17.347,8.026
		c0,0,10.172,1.178,15.544,4.089c5.372,2.911,16.906,8.075,26.141,27.422l-17.355,3.175c0,0-5.372-7.154-12.783-12.878
		c0,0-5.12-4.38-10.178-4.933c0,0-14.555-3.655-26.519-10.837c0,0-6.525-4.232-9.484-9.263l3.562-2.989c0,0-1.829-2.562-6.105-4.08
		c0,0-1.806-6.242,5.409-15.498c0,0,2.429-3.884,12.093-11.035c0,0,3.768-2.817,8.336-4.826S524.192,286.802,524.192,286.802z"/>
	<path style="fill:#FAE300;" d="M524.192,286.802c0,0,4.446,2.933,31.535-1.456c0,0-6.493,9.21-15.768,14.713
		c0,0-11.467,7.188-20.235,10.793c0,0-18.151,7.462-20.515,7.863c0,0-6.766,1.493-17.276,11.909c0,0-0.492,0.671-0.456,1.552
		l-2.6-1.3c0,0-0.671-7.626,3.925-13.255c0,0,3.167-5.357,12.188-12.169c0,0,6.953-4.745,10.382-6.005
		C505.371,299.448,522.916,288.508,524.192,286.802z"/>
	<path style="fill:#FFFFFF;" d="M493.498,353.059c0,0,15.51,7.683,22.337,7.521c0,0-6.439,4.199-7.883,4.591
		c0,0,11.657,2.376,10.681,11.395c0,0-2.366,11.314-10.57,15.93c0,0-7.025,3.648-18.449,5.83c0,0-24.505,2.441-31.559,14.202
		l-16.06-8.888c0,0,6.544-7.426,16.555-13.636c0,0,4.931-3.554,12.936-4.912c0,0,14.826-0.383,17.568-4.275l-8.108,1.225
		c0,0-21.065,0.379-18.398-11c0,0,0.142-3.886,7.02-6.557L493.498,353.059z"/>
	<path style="fill:#FAE300;" d="M507.952,365.171c0,0-13.205,6.127-16.751,6.609c0,0-7.437,2.402-9.112,4.708
		c-1.676,2.306-3.845,5.311,0,5.389c0,0,15.553-2.376,17.35-2.994c0,0,11.976-1.917,12.889,6.113c0,0,0.192,3.944-2.105,6.134
		c0,0,5.31-4.287,7.928-12.192C518.151,378.938,521.753,368.068,507.952,365.171z"/>
	<path style="fill:#FAE300;" d="M95.368,234.931l21.298,50.252c0,0-3.747,25.438,0.792,34.054
		C117.458,319.237,85.982,288.324,95.368,234.931z"/>
</g>
<g id="&#x30EC;&#x30A4;&#x30E4;&#x30FC;_2">
	<path style="fill:none;stroke:#000000;stroke-width:0.7087;stroke-linecap:round;stroke-linejoin:round;stroke-miterlimit:10;" d="
		M426.912,210.089c13.296-3.44,20.015,6.372,22.468,13.149c2.453,6.777-7.136,14.629-15.163,16.859s-17.839-1.115-17.839-1.115
		c-10.48-1.784-12.71-22.299-4.46-33.002s15.832-30.772,15.832-30.772c3.568-4.014,10.48-14.94,10.48-14.94
		s-2.434,12.626-3.025,17.793s-1.329,14.909-3.543,19.338c-2.214,4.429-16.386,39.414,0.59,39.857"/>
	<path style="fill:none;stroke:#000000;stroke-width:0.7087;stroke-linecap:round;stroke-linejoin:round;stroke-miterlimit:10;" d="
		M424.02,226.285c0,0,7.545-4.51,13.079-4.032s9.771,0.752,6.355,7.038"/>
	<path style="fill:none;stroke:#000000;stroke-width:0.7087;stroke-linecap:round;stroke-linejoin:round;stroke-miterlimit:10;" d="
		M407.306,217.233c0,0-32.387,12.55-34.3,22.529c-1.913,9.979,15.681,24.216,70.674,21.086c0,0-10.345-12.251-10.345-14.293
		c0,0-55.13,3.811-49.413-13.476"/>
	<path style="fill:none;stroke:#000000;stroke-width:0.7087;stroke-linecap:round;stroke-linejoin:round;stroke-miterlimit:10;" d="
		M390.391,242.985c0,0-2.203-2.433,4.848-6.293s13.514-4.636,13.514-4.636"/>
	<path style="fill:none;stroke:#000000;stroke-width:0.7087;stroke-linecap:round;stroke-linejoin:round;stroke-miterlimit:10;" d="
		M202.597,223.238c-17.412-17.138,24.051-25.913,24.051-25.913c18.407-3.652,29.806-8.891,34.203-11.187
		c2.693-1.406,3.665-4.893,1.905-7.368c-6.676-9.388-44.817-8.388-55.561-7.912c-3.89,0.172-7.935-0.895-9.672-4.381
		c-2.41-4.837-1.567-8.604,2.389-18.235c3.519-8.57,10.373-23.092,10.373-23.092c-4.191-0.838-20.746,7.963-20.746,7.963
		s-18.671,36.085,6.081,50.507c4.664,2.717,10.02,4,15.417,3.993c6.591-0.008,16.757-1.459,20.481-2.244
		c6.967-1.469,12.732,1.567,12.732,1.567"/>
	<path style="fill:none;stroke:#000000;stroke-width:0.7087;stroke-linecap:round;stroke-linejoin:round;stroke-miterlimit:10;" d="
		M232.152,218.671c0,0-11.258-9.656-32.373-8.098"/>
	<path style="fill:none;stroke:#000000;stroke-width:0.7087;stroke-linecap:round;stroke-linejoin:round;stroke-miterlimit:10;" d="
		M204.812,187.027c0,0-4.273,3.218-9.124,5.141c-4.851,1.924-41.042,20.587,7.403,34.121c0,0,24.748,3.189,35.976,19.384
		c5.18,7.471,5.779,17.173,1.573,25.233c-1.813,3.474-4.551,7.434-8.686,11.504c0,0,6.527,2.561,9.472,6.512
		c0,0,18.008-20.726,9.656-44.87"/>
	<g>
		<path style="fill:#FFFFFF;" d="M234.989,208.752c-0.07,0-0.141-0.021-0.202-0.063c-0.068-0.047-6.799-4.822-8.027-14.645
			c-0.021-0.167,0.078-0.325,0.236-0.379c0.089-0.031,9.004-3.077,15.085-3.752c0.013-0.001,0.026-0.002,0.04-0.002
			c0.158,0,0.299,0.105,0.341,0.261c0.607,2.215,2.34,8.171,3.063,9.114c1.425,1.86,4.58,5.726,4.611,5.765
			c0.085,0.104,0.104,0.249,0.048,0.371c-0.056,0.123-0.177,0.203-0.312,0.207c-0.111,0.003-11.135,0.368-14.67,3.052
			C235.14,208.728,235.065,208.752,234.989,208.752z"/>
		<path d="M242.12,190.264c0,0,2.2,8.031,3.124,9.236c1.446,1.886,4.618,5.773,4.618,5.773s-11.206,0.34-14.873,3.124
			c0,0-6.656-4.618-7.878-14.398C227.111,194,236.008,190.944,242.12,190.264 M242.121,189.556c-0.026,0-0.052,0.001-0.079,0.004
			c-6.12,0.68-14.795,3.644-15.161,3.769c-0.317,0.109-0.515,0.425-0.473,0.758c1.247,9.979,7.895,14.696,8.177,14.892
			c0.122,0.084,0.263,0.126,0.404,0.126c0.151,0,0.302-0.048,0.429-0.144c3.447-2.617,14.356-2.977,14.466-2.98
			c0.27-0.008,0.511-0.169,0.623-0.414s0.075-0.533-0.096-0.742c-0.032-0.039-3.182-3.9-4.605-5.756
			c-0.611-0.798-2.166-5.939-3.003-8.992C242.719,189.767,242.436,189.556,242.121,189.556L242.121,189.556z"/>
	</g>
	<path style="fill:none;stroke:#000000;stroke-width:0.7087;stroke-linecap:round;stroke-linejoin:round;stroke-miterlimit:10;" d="
		M332.13,217.065c-1.078-4.62-9.986-6.228-19.951-2.764c-0.413,0.144-0.82,0.302-1.226,0.465c-1.932,0.775-8.306,3.358-11.077,3.38"
		/>
	<path style="fill:none;stroke:#000000;stroke-width:0.7087;stroke-linecap:round;stroke-linejoin:round;stroke-miterlimit:10;" d="
		M289.447,190.465c-21.724,1.694-43.75,20.749-12.301,28.172"/>
	<path style="fill:none;stroke:#000000;stroke-width:0.7087;stroke-linecap:round;stroke-linejoin:round;stroke-miterlimit:10;" d="
		M321.127,197.08"/>
	<path style="fill:none;stroke:#000000;stroke-width:0.7087;stroke-linecap:round;stroke-linejoin:round;stroke-miterlimit:10;" d="
		M242.358,218.666c0,0,5.06,4.25,10.71,5.213c5.65,0.962,18.241,6.656,19.925,12.029c0,0-18.365,4.972-20.691,8.741
		c0,0-44.601-20.814-7.677-32.186l7.813,11.294"/>
	
		<polyline style="fill:none;stroke:#000000;stroke-width:0.7087;stroke-linecap:round;stroke-linejoin:round;stroke-miterlimit:10;" points="
		328.64,213.507 326.46,223.238 339.585,229.292 339.585,222.218 	"/>
	<path style="fill:none;stroke:#000000;stroke-width:0.7087;stroke-linecap:round;stroke-linejoin:round;stroke-miterlimit:10;" d="
		M307.103,200.921"/>
	<path style="fill:none;stroke:#000000;stroke-width:0.7087;stroke-linecap:round;stroke-linejoin:round;stroke-miterlimit:10;" d="
		M283.749,194.322c0,0-28.765,13.071,0.739,11.045"/>
	<path style="fill:none;stroke:#000000;stroke-width:0.7087;stroke-linecap:round;stroke-linejoin:round;stroke-miterlimit:10;" d="
		M348.394,198.138c0,0-0.756-33.777,22.182-61c0,0-21.174,9.074-25.963,14.62c0,0-16.666,48.589,10.687,56.337
		c0.734,0.208,1.504,0.256,2.266,0.212c2.007-0.115,6.296-0.105,8.472,1.815"/>
	<path style="fill:none;stroke:#000000;stroke-width:0.7087;stroke-linecap:round;stroke-linejoin:round;stroke-miterlimit:10;" d="
		M348.865,189.969c0,0,9.501,6.039,20.068,6.483c10.394,0.436,41.939,9.844,9.686,18.821c-1.001,0.279-2.043,0.416-3.081,0.381
		c-5.102-0.173-22.705-0.101-30.655,8.571c0,0-1.458-3.401-16.641-2.308c0,0,6.261-10.512,20.682-16.856"/>
	<g>
		<path style="fill:#FFFFFF;" d="M367.279,228.327c-0.055,0-0.11-0.013-0.16-0.039c-0.09-0.045-0.156-0.127-0.183-0.225
			c-1.232-4.651-3.604-12.265-4.722-12.894c-0.13-0.073-0.2-0.219-0.176-0.366s0.138-0.263,0.284-0.291
			c0.054-0.01,5.433-1.016,10.179-1.016c1.729,0,3.184,0.133,4.326,0.395c0.09,0.021,0.168,0.075,0.218,0.152
			c0.225,0.344,5.478,8.498,4.632,13.468c-0.029,0.172-0.18,0.295-0.35,0.295c-0.017,0-0.034-0.001-0.051-0.004
			c-0.032-0.005-3.253-0.469-6.817-0.469c-3.037,0-5.409,0.326-7.052,0.968C367.367,228.318,367.323,228.327,367.279,228.327z"/>
		<path d="M372.503,213.851c1.543,0,3.025,0.106,4.246,0.386c0,0,5.411,8.325,4.579,13.216c0,0-3.234-0.472-6.867-0.472
			c-2.516,0-5.223,0.226-7.181,0.993c0,0-3.226-12.175-4.891-13.112C362.388,214.861,367.735,213.851,372.503,213.851
			 M372.503,213.142c-4.78,0-10.025,0.98-10.246,1.022c-0.293,0.055-0.519,0.288-0.568,0.581s0.092,0.587,0.352,0.733
			c0.888,0.571,3.056,7.025,4.553,12.676c0.052,0.195,0.184,0.359,0.364,0.451c0.1,0.051,0.21,0.077,0.321,0.077
			c0.087,0,0.175-0.016,0.258-0.049c1.601-0.626,3.93-0.944,6.923-0.944c3.541,0,6.733,0.46,6.765,0.465
			c0.035,0.005,0.069,0.008,0.103,0.008c0.34,0,0.639-0.245,0.698-0.59c0.869-5.105-4.456-13.372-4.683-13.721
			c-0.1-0.154-0.257-0.263-0.436-0.305C375.739,213.278,374.257,213.142,372.503,213.142L372.503,213.142z"/>
	</g>
	<g>
		<path style="fill:#FFFFFF;" d="M384.898,227.121c-0.086,0-0.169-0.031-0.234-0.088c-0.072-0.063-0.115-0.154-0.119-0.25
			c-0.005-0.105-0.504-10.514-3.376-13.295c-0.056-0.054-0.093-0.124-0.104-0.201c-0.016-0.102,0.028-0.239,0.096-0.317
			c0.415-0.483,4.38-1.674,8.821-1.674c2.396,0,4.618,0.338,6.604,1.005c0.097,0.032,0.175,0.104,0.214,0.198
			c0.146,0.344,3.549,8.488,1.881,13.265c-0.047,0.132-0.166,0.225-0.306,0.236C398.375,226,384.908,227.121,384.898,227.121z"/>
		<path d="M389.981,211.65c2.078,0,4.326,0.259,6.493,0.986c0,0,3.515,8.307,1.873,13.01l-13.448,1.12
			c0,0-0.475-10.622-3.483-13.533C381.379,213.003,385.236,211.65,389.981,211.65 M389.981,210.941L389.981,210.941
			c-4.361,0-8.563,1.183-9.09,1.798c-0.135,0.157-0.208,0.398-0.177,0.602c0.024,0.153,0.096,0.294,0.208,0.401
			c2.302,2.228,3.14,10.18,3.268,13.056c0.009,0.192,0.095,0.373,0.24,0.5c0.13,0.114,0.296,0.177,0.468,0.177
			c0.02,0,0.039-0.001,0.059-0.002l13.448-1.12c0.279-0.023,0.518-0.208,0.61-0.473c1.713-4.905-1.741-13.171-1.889-13.52
			c-0.079-0.187-0.235-0.331-0.427-0.396C394.675,211.285,392.415,210.941,389.981,210.941L389.981,210.941z"/>
	</g>
	<path style="fill:none;stroke:#000000;stroke-width:0.7087;stroke-linecap:round;stroke-linejoin:round;stroke-miterlimit:10;" d="
		M311.018,229.955c0,0,3.391,3.535,11.01,2.719c7.618-0.816,37.26,0.816,46.37,13.733l-19.716,5.847c0,0-5.898-5.271-15.979-6.86
		c-13.033-2.054-44.486-9.255-19.781-26.186l8.432,13.527"/>
	<path style="fill:none;stroke:#000000;stroke-width:0.7087;stroke-linecap:round;stroke-linejoin:round;stroke-miterlimit:10;" d="
		M449.771,242.985c0,0-6.26,6.747,15.258,2.696l8.86,12.911c0,0-34.267,9.587-29.209-11.47c4.882-20.322,73.253-50.76,84.666-12.577
		c0.943,3.154,0.262,7.142-0.977,10.192c-2.799,6.89-11.649,17.376-35.462,26.108c-31.628,11.597-28.052,14.501-28.052,14.501"/>
	<path style="fill:none;stroke:#000000;stroke-width:0.7087;stroke-linecap:round;stroke-linejoin:round;stroke-miterlimit:10;" d="
		M465.029,245.682c0,0,33.603-24.605,46.447,0"/>
	<path style="fill:none;stroke:#000000;stroke-width:0.7087;stroke-linecap:round;stroke-linejoin:round;stroke-miterlimit:10;" d="
		M525.297,231.334c0,0,0.698,9.354-15.637,15.916s-75.081,30.151-54.564,52.047c0,0,22.069,15.172,22.931,17.931l4.138-18.103
		c0,0-8.006-6.752-15.356-12.012c-2.658-1.903-4.256-5.04-3.669-8.256c0.326-1.786,1.135-3.659,2.861-5.177"/>
	<path style="fill:none;stroke:#000000;stroke-width:0.7087;stroke-linecap:round;stroke-linejoin:round;stroke-miterlimit:10;" d="
		M354.264,348.2c1.28-6.044-1.315-9.297-3.962-11.009c-1.849-1.195-4.047-1.756-6.249-1.733
		c-17.695,0.184-27.959-13.461-28.501-29.733c-0.56-16.796-8.678-27.153-8.678-27.153c1.12-8.678,8.678-18.497,8.678-18.497
		s15.502,23.863,12.956,41.691c-2.547,17.828,30.331,23.617,30.331,23.617s16.671,4.862-1.158,24.774
		c-17.828,19.912-48.854,20.144-48.854,20.144s13.205-12.735,13.201-15.281c0,0,24.494-0.219,32.336-12.08"/>
	<g>
		<path style="fill:#FAE300;" d="M312.652,346.995c-0.154,0-0.294-0.101-0.339-0.253l-4.301-14.407
			c-0.033-0.11-0.011-0.229,0.06-0.319c0.067-0.086,0.17-0.137,0.279-0.137c0.005,0,0.109,0.004,0.279,0.004
			c2.593,0,26.023-0.883,49.977-31.479c0.041-0.052,0.095-0.092,0.158-0.114c0.46-0.167,11.328-4.099,16.243-4.099
			c0.688,0,1.224,0.075,1.636,0.229c0.163,0.062,0.257,0.23,0.224,0.4c-0.073,0.372-8.006,37.36-64.136,50.166
			C312.704,346.992,312.677,346.995,312.652,346.995z"/>
		<path d="M375.008,296.544c0.614,0,1.128,0.064,1.511,0.207c0,0-7.311,36.987-63.867,49.889l-4.301-14.408
			c0,0,0.095,0.004,0.279,0.004c2.802,0,26.244-0.946,50.255-31.615C358.885,300.622,370.099,296.544,375.008,296.544
			 M375.008,295.836c-4.976,0-15.902,3.952-16.365,4.12c-0.125,0.045-0.234,0.125-0.316,0.229
			c-23.85,30.464-47.122,31.343-49.697,31.343c-0.157,0-0.241-0.003-0.25-0.003c-0.01,0-0.019-0.001-0.029-0.001
			c-0.218,0-0.425,0.101-0.56,0.274c-0.141,0.181-0.185,0.418-0.12,0.638l4.301,14.408c0.091,0.306,0.372,0.506,0.679,0.506
			c0.052,0,0.105-0.006,0.158-0.018c29.411-6.71,45.344-20.031,53.533-30.025c8.907-10.872,10.796-20.033,10.872-20.418
			c0.067-0.34-0.122-0.679-0.446-0.801C376.315,295.918,375.739,295.836,375.008,295.836L375.008,295.836z"/>
	</g>
	<path style="fill:none;stroke:#000000;stroke-width:0.7087;stroke-linecap:round;stroke-linejoin:round;stroke-miterlimit:10;" d="
		M369.082,349.01c0,0,4.06-3.654,3.857-14.412c0,0,15.021-7.511,17.863-7.511c0,0,2.639,14.412-9.541,23.344
		c0,0-5.481,4.669-7.714,10.15c0,0-7.714-5.481-12.382-4.466c0,0,5.173-10.689,10.658-12.281"/>
	<path style="fill:none;stroke:#000000;stroke-width:0.7087;stroke-linecap:round;stroke-linejoin:round;stroke-miterlimit:10;" d="
		M385.856,380.674c0,0-1.584-14.318,17.423-20.094c19.007-5.776,31.502-10.704,30.798-15.808l-16.543-8.624
		c0,0-52.973,17.951-40.126,38.542c12.847,20.591,37.134,25.695,35.726,37.838c0,0,14.822-24.835-10.304-36.089
		c-0.489-0.219-1-0.38-1.522-0.497c-2.743-0.617-11.783-2.483-11.276-7.251"/>
	<path style="fill:none;stroke:#000000;stroke-width:0.7087;stroke-linecap:round;stroke-linejoin:round;stroke-miterlimit:10;" d="
		M441.099,351.472c-0.72,0-4.313,2.099-4.313,2.099c-1.644,4.632,1.345,17.93,1.345,17.93l5.893-3.245
		c0.592-0.326,1.228-0.583,1.877-0.771c42.307-12.243,6.873-29.901,6.873-29.901c-5.827,2.689-14.643,18.976-14.643,18.976
		s21.847,2.125,16.143,7.068"/>
	<g>
		<path style="fill:#FFFFFF;" d="M436.293,398.333c-0.057,0-0.113-0.014-0.165-0.041c-0.157-0.083-15.798-8.286-22.17-8.764
			c-3.546-0.267-8.234-2.961-10.336-7.596c-1.396-3.077-2.081-8.047,2.579-14.246c0.067-0.09,0.173-0.142,0.283-0.142
			c0.026,0,0.053,0.003,0.079,0.009c0.48,0.11,11.809,2.715,15.223,4.177c0.057,0.024,0.105,0.062,0.143,0.111
			c0.045,0.061,4.602,5.978,9.343,6.056c4.935,0.081,18.788,3.448,23.849,7.328c0.096,0.073,0.147,0.191,0.137,0.312
			c-0.01,0.121-0.081,0.228-0.188,0.284c-0.134,0.069-13.429,7.045-18.519,12.401C436.481,398.295,436.387,398.333,436.293,398.333z
			"/>
		<path d="M406.484,367.899c0,0,11.738,2.69,15.162,4.157c0,0,4.646,6.114,9.619,6.195c4.972,0.082,18.748,3.505,23.639,7.255
			c0,0-13.421,7.01-18.612,12.472c0,0-15.788-8.315-22.309-8.804C407.462,388.685,397.599,379.719,406.484,367.899 M406.484,367.19
			c-0.22,0-0.431,0.102-0.566,0.283c-4.764,6.338-4.054,11.441-2.619,14.606c2.158,4.76,6.982,7.528,10.632,7.802
			c6.3,0.473,21.875,8.642,22.032,8.724c0.104,0.055,0.218,0.082,0.33,0.082c0.19,0,0.377-0.076,0.514-0.22
			c5.051-5.315,18.293-12.262,18.426-12.332c0.215-0.112,0.357-0.326,0.378-0.567s-0.083-0.476-0.275-0.624
			c-5.111-3.918-19.085-7.319-24.059-7.401c-4.566-0.075-9.022-5.857-9.066-5.916c-0.074-0.097-0.172-0.174-0.285-0.222
			c-3.443-1.475-14.801-4.086-15.283-4.197C406.59,367.196,406.537,367.19,406.484,367.19L406.484,367.19z"/>
	</g>
	<path style="fill:none;stroke:#000000;stroke-width:0.7087;stroke-linecap:round;stroke-linejoin:round;stroke-miterlimit:10;" d="
		M481.933,330.625c0,0,8.376-8.596,15.66-11.327c7.284-2.731,44.887-14.186,58.133-33.951c0,0-26.032,3.995-31.535,1.456
		c0,0-14.299,10.488-19.683,12.91c-9.994,4.497-44.445,27.976-12.064,48.486c0,0,19.683,9.293,26.455,10.139
		c6.773,0.847,19.471,14.18,21.588,17.566l17.355-3.175c0,0-10.159-26.032-37.249-30.9c0,0-29.123-2.012-25.118-21.596"/>
	<path style="fill:none;stroke:#000000;stroke-width:0.7087;stroke-linecap:round;stroke-linejoin:round;stroke-miterlimit:10;" d="
		M480.022,380.196c0.678-5.422,10.375-8.216,11.964-8.639c0.163-0.043,0.323-0.091,0.483-0.144
		c16.607-5.526,23.366-10.833,23.366-10.833c-9.479-0.704-22.337-7.521-22.337-7.521s-23.998,11.076-27.875,13.568
		c-3.877,2.492-9.23,14.676,15.322,15.414c0,0,12.94-1.832,17.537-2.954c7.569-1.846,13.845,1.661,13.845,5.907"/>
	<path style="fill:none;stroke:#000000;stroke-width:0.7087;stroke-linecap:round;stroke-linejoin:round;stroke-miterlimit:10;" d="
		M507.952,365.171c0.119,0.052,20.19,3.584,5.002,23.234c-1.374,1.778-3.124,3.232-5.142,4.22
		c-3.846,1.884-11.535,4.791-25.32,7.011c-5.057,0.814-9.993,2.326-14.533,4.697c-4.167,2.176-8.301,5.002-9.904,8.196l-16.06-8.888
		c0,0,16.245-17.907,30.644-18.645c14.399-0.738,16.415-4.179,16.415-4.179"/>
	<g>
		<path style="fill:#FFFFFF;" d="M469.321,348.549c-0.097-0.011-0.185-0.062-0.242-0.139c-1.249-1.667-16.356-5.743-26.883-5.743
			c-2.364,0-4.32,0.212-5.813,0.63c-2.254,0.632-5.606,0.993-9.198,0.993c-8.183,0-18.147-1.829-21.577-6.963
			c-1.49-2.232-1.616-4.884-0.374-7.882c5.795-13.981,4.671-23.895,4.659-23.993c-0.016-0.129,0.04-0.256,0.146-0.332l18.039-12.841
			c0.061-0.043,0.133-0.065,0.205-0.065c0.041,0,0.082,0.007,0.122,0.021c0.109,0.04,0.192,0.132,0.222,0.245
			c0.726,2.842-0.411,6.395-1.85,10.892c-1.365,4.271-3.065,9.586-3.512,15.751c-0.184,2.531,0.459,4.604,1.91,6.165
			c2.773,2.981,7.9,3.607,11.713,3.607c2.133,0,3.674-0.205,3.688-0.208c6.54-1.044,12.639-1.574,18.119-1.574
			c20.692,0,26.439,7.364,26.675,7.678c0.112,0.15,0.088,0.362-0.057,0.483l-15.725,13.194c-0.063,0.054-0.145,0.083-0.228,0.083
			C469.348,348.552,469.335,348.551,469.321,348.549z"/>
		<path d="M428.283,292.569c1.395,5.462-4.467,14.058-5.371,26.53c-0.643,8.872,8.592,10.152,13.976,10.152
			c2.185,0,3.736-0.211,3.736-0.211c7.02-1.121,12.996-1.571,18.07-1.571c20.753,0.001,26.393,7.536,26.393,7.536l-15.725,13.194
			c-1.337-1.783-16.714-5.885-27.167-5.885c-2.265,0-4.299,0.193-5.909,0.643c-2.191,0.614-5.472,0.98-9.103,0.98
			c-11.343,0-26.091-3.576-21.623-14.355c5.898-14.229,4.684-24.172,4.684-24.172L428.283,292.569 M428.283,291.86
			c-0.145,0-0.289,0.045-0.411,0.131l-18.038,12.841c-0.211,0.15-0.324,0.405-0.293,0.663c0.012,0.098,1.112,9.95-4.635,23.815
			c-1.291,3.114-1.154,5.877,0.407,8.214c3.507,5.25,13.597,7.121,21.871,7.121c3.623,0,7.011-0.367,9.294-1.006
			c1.462-0.409,3.386-0.617,5.718-0.617c10.755,0,25.548,4.199,26.6,5.601c0.117,0.156,0.293,0.257,0.486,0.279
			c0.027,0.003,0.054,0.005,0.081,0.005c0.166,0,0.327-0.058,0.455-0.166l15.725-13.194c0.288-0.242,0.337-0.666,0.112-0.968
			c-0.239-0.319-6.092-7.819-26.96-7.82c-5.5,0-11.616,0.532-18.182,1.58l0,0c-0.002,0-1.522,0.202-3.625,0.202
			c-3.064,0-8.625-0.454-11.453-3.494c-1.381-1.485-1.992-3.469-1.816-5.897c0.444-6.123,2.136-11.416,3.496-15.669
			c1.456-4.552,2.605-8.147,1.854-11.088c-0.058-0.226-0.224-0.41-0.443-0.49C428.447,291.875,428.365,291.86,428.283,291.86
			L428.283,291.86z"/>
	</g>
	<path style="fill:none;stroke:#000000;stroke-width:0.7087;stroke-linecap:round;stroke-linejoin:round;stroke-miterlimit:10;" d="
		M307.362,200.346c0,0,23.98-12.496,31.103,10.873"/>
	<path style="fill:none;stroke:#000000;stroke-width:0.7087;stroke-linecap:round;stroke-linejoin:round;stroke-miterlimit:10;" d="
		M309.802,181.636c0,0,5.202-4.587,6.616-7.171c0,0,1.755,4.34,3.169,5.315s6.785,8.71,1.54,17.3"/>
	<g>
		<path style="fill:#FFFFFF;" d="M253.068,204.15c-0.031,0-0.062-0.004-0.092-0.012c-0.083-0.022-2.063-0.576-3.853-2.762
			c-1.629-1.991-3.398-5.78-2.576-12.526c0.016-0.132,0.105-0.244,0.23-0.29c0.454-0.166,11.162-4.065,14.565-4.065
			c0.594,0,0.965,0.115,1.169,0.361c0.188,0.228,0.306,0.737,0.577,1.969c0.774,3.511,2.383,10.818,7.638,14.09
			c0.134,0.083,0.197,0.247,0.153,0.398c-0.043,0.152-0.182,0.257-0.34,0.257c0,0-0.001,0-0.001,0
			c-0.462,0-11.058,0.029-17.338,2.553C253.158,204.141,253.113,204.15,253.068,204.15z"/>
		<path d="M261.343,184.849c0.449,0,0.762,0.071,0.896,0.233c0.642,0.776,1.405,11.84,8.301,16.134c0,0-0.004,0-0.013,0
			c-0.42,0-11.105,0.025-17.459,2.579c0,0-7.733-2.084-6.169-14.903C246.899,188.893,257.962,184.849,261.343,184.849
			 M261.343,184.14C261.343,184.14,261.343,184.14,261.343,184.14c-3.466,0-14.231,3.92-14.688,4.087
			c-0.25,0.091-0.428,0.315-0.46,0.58c-1.619,13.276,6.349,15.581,6.688,15.673c0.061,0.016,0.123,0.024,0.184,0.024
			c0.09,0,0.18-0.017,0.264-0.051c6.218-2.499,16.749-2.528,17.194-2.528c0.316,0,0.601-0.21,0.688-0.514
			c0.087-0.304-0.032-0.629-0.3-0.796c-5.128-3.193-6.716-10.402-7.479-13.866c-0.304-1.38-0.411-1.83-0.65-2.118
			C262.421,184.191,261.788,184.14,261.343,184.14L261.343,184.14z"/>
	</g>
	<g id="&#x30EC;&#x30A4;&#x30E4;&#x30FC;_5">
		<path style="fill:#FAE300;" d="M229.783,106.755l23.51,21.054c0,0,0.482-2.439,13.426-5.153
			c12.943-2.714,22.906-4.653,22.906-4.653l24.125,0.106c0,0,8.889,0.517,12.226,1.552c3.337,1.035,21.37,2.544,21.37,2.544
			s24.49,2.194,28.57,1.432c0,0,12.645-0.298,15.684-1.691c0,0,20.128-3.458,22.796-5.411c0,0,6.896-2.918,7.901-4.658
			c0,0,9.258-5.013,17.87-6.329c0,0,18.296-3.862,22.61-3.85c0,0,12.876-3.595,54.508,5.707c0,0,130.586,21.395,102.653,170.605
			c0,0,17.426-30.531,20.875-61.775c0,0,6.156-50.027-35.719-90.733c0,0-52.064-54.055-138.563-46.803
			c0,0-35.532,3.546-55.229,14.311c0,0-35.504,14.05-59.853,11.161c0,0-3.745,0.896-21.394-4.489c0,0-13.083-3.841-32.049-2.155
			C298.006,97.526,265.879,98.409,229.783,106.755z"/>
		<path style="fill:#FFFFFF;" d="M639.796,224.326c0,0,0.112,0.79-0.757,8.526c-0.869,7.736-4.13,22.835-4.13,22.835
			s-5.673,26.255-7.021,29.666s-5.491,21.289-8.401,28.72c0,0-4.876,12.827-8.558,19.462s-9.267,15.641-11.94,19.154
			c-2.673,3.512-22.648,29.69-51.653,43.268c0,0-29.871,15.37-61.259,17.421c0,0-26.835,1.925-39.339-1.38
			c0,0-27.019-5.752-56.442,0.267c0,0-48.531,9.5-57.165,13.977c0,0-30.244,13.212-70.288,6.958c0,0-56.098-8.311-100.787-42.07
			c0,0-22.678-13.965-32.261-29.746c0,0-20.707-27.752-32.35-77.923c0,0,9.005,29.141,28.924,44.861
			c19.919,15.72,66.222,50.968,82.907,56.391c0,0,34.414,18.771,66.117,18.98c0,0,28.366,1.46,47.346-7.509
			c0,0,48.433-12.934,61.238-13.246c0,0,40.076-5.047,52.316-3.837c12.239,1.209,1.929-1.05,30.375,2.544
			c0,0,19.507,3.04,38.512-2.715c0,0,30.113-8.699,45.102-21.949c0,0,35.742-25.302,62.667-68.275
			C612.948,288.706,631.069,264.831,639.796,224.326z"/>
	</g>
	<path style="fill:none;stroke:#000000;stroke-width:0.7087;stroke-linecap:round;stroke-linejoin:round;stroke-miterlimit:10;" d="
		M619.938,278.009"/>
	<path style="fill:none;stroke:#000000;stroke-width:0.7087;stroke-linecap:round;stroke-linejoin:round;stroke-miterlimit:10;" d="
		M117.458,319.237c-4.541-6.917-0.792-34.054-0.792-34.054l-21.298-50.252c0,0-15.239,58.478,38.581,99.711
		c46.546,35.66,114.902,88.39,186.687,62.469c31.583-11.405,101.635-22.518,140.981-16.16
		c46.558,7.524,102.268-14.426,158.32-102.942"/>
	<path style="fill:none;stroke:#000000;stroke-width:0.7087;stroke-linecap:round;stroke-linejoin:round;stroke-miterlimit:10;" d="
		M96.352,278.833c0,0,13.724,63.628,41.889,92.858c21.13,21.929,113.552,86.348,194.89,54.551
		c15.153-5.924,51.199-13.528,67.28-15.501c22.036-2.703,40.225,0.193,49.504,1.788c42.507,7.305,143.835-7.256,173.398-110.235
		c0,0,15.119-52.617,16.916-80.548"/>
	<path style="fill:none;stroke:#000000;stroke-width:0.7087;stroke-linecap:round;stroke-linejoin:round;stroke-miterlimit:10;" d="
		M619.938,278.009c28.23-163.946-117.694-173.589-136.037-176.406s-55.315,5.07-62.07,10.623s-14.203,6.473-32.967,10.268
		c-18.764,3.795-63.47-2.92-63.47-2.92s-15.164-3.968-43.84,0.397c-28.676,4.365-28.262,7.837-28.262,7.837l-23.51-21.054
		c0,0,71.146-16.986,104.985-5.742s78.132-8.686,78.132-8.686s69.894-35.543,152.066,5.199s78.543,113.17,74.269,129.291
		C639.235,226.817,630.261,261.991,619.938,278.009"/>
	<path style="fill:#FFFFFF;" d="M302.256,95.86l1.711,1.667c0,0,0.739-5.197,18.061-13.478c0,0-18.507-20.184-35.976,1.332
		c0,0-17.755,13.721-8.456,51.757c0,0,3.19,17.876,10.737,34.385c0,0,5.045,10.516-0.712,26.2c0,0-3.87,12.68-16.189,29.266
		c0,0-13.221,15.563-25.959,27.695l18.174,5.391c0,0,30.328-24.408,41.253-52.978c0,0,4.132-9.972,4.777-18.932
		c0,0,1.728-7.034-2.203-22.562c0,0-9.247-34.632-8.903-40.479C298.568,125.122,297.211,107.922,302.256,95.86z"/>
	<path style="fill:#FAE300;" d="M322.027,84.048c0,0-5.817-6.093-13.178-1.078c0,0-6.233,10.054-6.594,12.89l1.711,1.667
		C303.967,97.526,305.63,91.685,322.027,84.048z"/>
	<path style="fill:none;stroke:#000000;stroke-width:0.7087;stroke-linecap:round;stroke-linejoin:round;stroke-miterlimit:10;" d="
		M309.088,82.97c0,0-17.252,20.487-8.087,56.609c9.165,36.122,13.478,46.57,1.617,72.885
		c-11.861,26.315-38.974,47.611-38.974,47.611l-10.383-2.983l-7.483-2.416l6.449-6.676c0,0,4.195-3.885,5.9-6.029
		c0.423-0.532,0.848-1.063,1.304-1.566l8.864-9.781c0,0,29.52-33.577,20.036-59.101c-5.123-13.786-29.717-67.08,4.583-92.596
		c0,0,13.209-11.052,29.113,5.122c0,0-15.635,7.278-18.061,13.478l-1.711-1.667"/>
</g>
</svg>
