<svg id="レイヤー_1" data-name="レイヤー 1" xmlns="http://www.w3.org/2000/svg" viewBox="0 0 419.53 595.28"><defs><style>.cls-1{fill:#eeda23;}.cls-2{fill:#fae300;}.cls-3,.cls-6{fill:#fff;}.cls-4{fill:#f1d700;}.cls-5,.cls-7{fill:none;}.cls-5,.cls-6,.cls-7{stroke:#231815;stroke-miterlimit:10;}.cls-5,.cls-6{stroke-width:0.31px;}.cls-7{stroke-width:0.28px;}</style></defs><title>dekikata</title><path class="cls-1" d="M157.06,129.84l14.83-4.58s-6.7,28.54-1.31,45.16c0,0,1.32,6.31,1.09,7.9L169.72,174S149.84,138.54,157.06,129.84Z"/><path class="cls-2" d="M336,288.9,321.5,309.34s12.39,41.31,40.78,47.09l-13.77-33.76s-6-14-8.66-23.08C339.5,298.38,336,288.9,336,288.9Z"/><path class="cls-3" d="M362.28,356.43s17.81,37.07,4.65,60.4c-8.05,14.27-29.22,25.35-29.22,25.35l-15.28,8.58s-18.57,9.71-18.27,26.56a10.69,10.69,0,0,1,4.8-6,113.11,113.11,0,0,1,10.65-4.71s20.86-7.13,22.9-9.43c0,0,16.05-8.92,19.32-12.45,0,0,13.27-11,16.68-16.7,0,0,8.3-10.75,10.46-17.15,1.48-4.37,7.28-18.4,1.53-31.09C390.5,379.82,386.65,363.75,362.28,356.43Z"/><path class="cls-3" d="M55,56.74,68.13,74.66S60.3,97.73,71,107c10.37,8.92,15.51,43.82,12.74,101.27L70.17,149s-6.91-19.52-9.47-24.29c-2-3.7-1.82-4.84-8.39-12.48,0,0-6.79-6.87-5-20.31S49.14,71.5,55,56.74Z"/><path class="cls-3" d="M171.67,178.32c1.41.7-2.91,65.05-14.4,76.18,0,0,6.3.06,11.49,15,0,0,2,3.6,3.14.07,0,0,4.26-16.62,4.26-19.17,0,0,4.24-27.11,2.48-40.18A118.39,118.39,0,0,0,171.67,178.32Z"/><path class="cls-3" d="M219.54,68.08H250s19.86,12.67,28.71,54.37-1.86,76.1-1.86,76.1-8.08,25-13.09,35.53L268.27,200s-.88-30.27-2.3-34l-2.59-16.88-3-13.18s-8.84-28.65-11.72-31.93l-4.78-8.28S228.27,71.6,219.54,68.08Z"/><path class="cls-2" d="M58.74,342.56s-8.15-3.33-9.62-15.07,2.73-25.43,4.82-31.45c1.79-5.18,13.13-30.94,22-50.37,0,0,4.44-10.48,5.27-17.07,1.57-12.4,3.13-22.53,2.6-20.38,0,0,3.41,22.18-.07,41.48-3.21,17.87-4.86,21.31-8.27,31.58-4.32,13-11.93,23.49-18.73,37.12S55.17,339.58,58.74,342.56Z"/><path class="cls-2" d="M66.14,346a58.75,58.75,0,0,0,11,.05c6.58-.53,14.22-1.32,21.3,2s-3.67,6-3.67,6-15.23,2.57-19.62,4.1S50.28,365,68.36,379.72c0,0-20.54-4.87-23.7-16C44.66,363.68,41.77,354.47,66.14,346Z"/><path class="cls-2" d="M131.19,355s-23.6,9.52,4.4,7.93l2.4-7.37Z"/><path class="cls-2" d="M97.7,369.48s-5.51,6.16,19.63,11.59l-11.8,13.81S73.87,377.28,97.7,369.48Z"/><path class="cls-2" d="M147.78,270.36l2.49,3.88s12.51,7.6,20.25-1.94l1.38-2.72s-1.29,3.68-3.14-.34-7-16.32-12.45-14.08S147.78,270.36,147.78,270.36Z"/><path class="cls-2" d="M173.5,386.35l-4-13.78S146.44,380.77,173.5,386.35Z"/><path class="cls-2" d="M189.84,366.4l-3.59,1v13.86s11.77-4.54,16.08-4.6l-2.27-3.41,5.52-1.18S192.51,369.52,189.84,366.4Z"/><path class="cls-2" d="M223.55,386.25s-9.22,6.82,0,11.43,32.25,5.43,34.89,5.33l-17.18,12S187.18,402.87,223.55,386.25Z"/><path class="cls-2" d="M315.57,394s-34.17,17.67-38.28,9.07c0,0-2.46-5.81,10.5-12.77s32.77-10.34,38.93-8.92,14.09,3.33,14.56,10-6.25,12.86-9.37,13.75a7.58,7.58,0,0,0-5.19-4.2l6.52-4.8Z"/><path class="cls-2" d="M301.44,419.64s-19.91,13.95-9,20.08l-1.79,13.88S258.7,440.06,301.44,419.64Z"/><path class="cls-2" d="M213.41,479.93l-12.64,12.5s12.13-.59,13.16-3.63S213.41,479.93,213.41,479.93Z"/><path class="cls-2" d="M252.88,498.16l.9,12.58S233.94,509.43,252.88,498.16Z"/><path class="cls-4" d="M265.37,485.66c3.21-5.45,15.78-12.15,20.37-21.16l-16.85.5s-8.82,15.75-23.22,17.78c0,0-25.92,8.3-29.73,15.82s8.19,19.33,9.87,20.73c0,0-6.09-8,0-13.1a32.91,32.91,0,0,1,13.05-6.44"/><path class="cls-2" d="M307.91,516.7s-6.82-1.36,1.62-5,15.36-7.06,15.36-7.06,15.11-2,13,9.26c0,0-.47,5-8.79,12.4,0,0,8.67-11.91-10.6-10.58C318.48,515.72,309.58,516.14,307.91,516.7Z"/><path class="cls-2" d="M159.18,406.39s-2.76,13.83-6.14,16.38c0,0,10.32,18.69,9.8,23.9,0,0,.27,4,.16,5s-.16,12.79,8,18.09A81.3,81.3,0,0,0,189,478.53c1.57.4,15.06,3.44,8.09,11.62,0,0,14.47-11.63,10.17-17.94,0,0-1.72-3.2-10.85-3.53s-17.73-8.07-17.73-8.07-5.48-4.2-4.64-15.66C174.89,432.7,159.18,406.39,159.18,406.39Z"/><path class="cls-2" d="M215.88,222.91l-13.26,23.65s2.94,2.24,2.34,9.69-5.79,24.46-10.48,36.56c0,0-9.93,28.69-11.11,39.24s-2.57,19.41,1.93,28.55c0,0,3.28,6.17,7.57,7.77,0,0-5.11-5.17-4.55-14.66s6.06-17.54,6.06-17.54,8.84-16.73,9-18.16,6.1-12.23,10.61-27.78S225.35,249.08,215.88,222.91Z"/><path class="cls-2" d="M269.1,220.65s-5.52,13.3-7.33,19.4-5.39,20.85-6.11,26.57-2.53,21.89-1.17,33,.5,11.05,5.15,26.4c0,0,2.77,7,3.09,8.32a67.59,67.59,0,0,0,6.65-20.77c1.7-11.81,2-15.14,2-15.14l.71-10.68.29-22.47-1.13-21.71Z"/><path class="cls-3" d="M56.69,318.4s-9.21,15.32,2.6,24.86a20.71,20.71,0,0,0,10.25,3c5.41-.11,16.45-.93,17-.82A43.44,43.44,0,0,1,100.39,348s3.13,3-2.28,3.44a10,10,0,0,1,1.14,1.85l4.67-.8s14.4-7.17,11.1-11.47-14.12-5.89-15.88-5.89c0,0-8.26-1.14-10.13-1.14s-15.76-.48-16.3-.44-7.83-1.1-10-3.71a13.34,13.34,0,0,1-4.66-5.64A38,38,0,0,1,56.69,318.4Z"/><path class="cls-3" d="M62.53,364.86s-6.49,6.26,6.56,15.23c0,0,7,1.7,8.79,1.16L69.51,367S63.51,364.82,62.53,364.86Z"/><path class="cls-3" d="M122.28,345.34l12.08-4.07s.3,3.3,4.42,4.68c3.94,1.32,17.11,1.6,17.11,1.6s15.3,0,8.11,10.77a19.9,19.9,0,0,0,3.93-1.86l6.18,10.59a76.85,76.85,0,0,1-26.86,7.36l-9.58-17.58S122.94,356.45,122.28,345.34Z"/><path class="cls-3" d="M128.24,353.6l3.44,1.28L125.11,358c-1,.49-5.59,3.38-1.37,4.41s5.48.84,11.53.63a24.18,24.18,0,0,1-7.35,10.83s-11.52-2.69-12.85-9.33c0,0-1-5.16,8.18-8.7l4.66-1.69Z"/><path class="cls-3" d="M98.44,369.24s-2.89,2-.63,4.24,9.42,5.14,10.66,5.16l-.06-11.39S100.18,368.25,98.44,369.24Z"/><path class="cls-3" d="M162.65,375.83s-3.88,2.64-1.69,5.46,13.55,7.2,41.37,8.19L181,402.19s-27.36-6.61-28-16.11C153,386.08,152.4,381.05,162.65,375.83Z"/><path class="cls-3" d="M188.58,351.19s-1.14,11.37,4.29,17.18c0,0,4.27,1.61,13.84,4l10.16,3.67,6.58-3.05s6.48-4.37,2.59-7.34-12.53-4.47-18.73-5.27c0,0-9.94-1.25-11.92-3S191.32,355.43,188.58,351.19Z"/><path class="cls-3" d="M262.83,334.34s3.32,12.15,2.2,16.6c0,0-.62,4.41-.79,6.38s-2.72,7.92-2.72,7.92l-2.89,8.62,2.09-.25s6.9-.9,9.8,1.65,5.25,4.12,6.32,11.45a9.2,9.2,0,0,1-4.63,8.23c-5.14,3.21-13.72,4.65-20.2,3.79s-10.76-6.3-10.75-12.86a25.87,25.87,0,0,1,2.5-11.19s3.62-6.24,3.62-6.47,5.45-11,5.45-11l5.61-12.58Z"/><path class="cls-2" d="M256.49,386.23s13.41-4.32,16.93,1.39a3.11,3.11,0,0,1-.58,3.89,18,18,0,0,1-11.78,4.65S255.54,397.24,256.49,386.23Z"/><path class="cls-3" d="M241.58,379.2s-15.42,4.42-17.87,6.88c0,0-10.74,8.41,3.45,12.35,0,0-1.61-1.34,3-3.71S242.48,389,242.48,389Z"/><path class="cls-3" d="M279.83,395.73s-7.4,10.77,3.11,9.47a28.57,28.57,0,0,0,8.12-1.63c5-1.64,16.43-5.11,24.51-9.54l17.67,2.17A175.21,175.21,0,0,1,313.63,409c-9.63,5.21-18.4,7.53-21.78,7.74s-10.91.93-15.88-4.12C276,412.66,269.43,405.28,279.83,395.73Z"/><path class="cls-3" d="M340.62,387.92a9.32,9.32,0,0,1,.61,5.36c-.63,2.63-1.14,6.65-9.32,11.92a98.86,98.86,0,0,1-15.79,8.22s-12.24,4.63-13.58,6-7.14,3.4-11.27,9.7-1.53,8.45-1.53,8.45a9.17,9.17,0,0,1,2.32-3,43.07,43.07,0,0,1,8.75-4.4c4.05-1.37,11.37-3.48,12-3.72s7.62-2.92,7.62-2.92,10.58-4.68,12-6.1,3.65-2,7.57-5.94a19.68,19.68,0,0,0,4.92-7.37S348.46,395.91,340.62,387.92Z"/><path class="cls-3" d="M198.39,484.49s-8.85,10-34.34,5.53l-16.89,11s11.88,3.74,20.9,1.95,13.27-1.79,23.42-8.08C191.48,494.91,200.37,489.59,198.39,484.49Z"/><path class="cls-3" d="M211.35,474.31s6.14,13.84.93,16.15c0,0,24.5-3.85,14.62-22.55Z"/><path class="cls-3" d="M268.89,465l16.85-.5s-9,11.91-11,12.87S263.33,488.69,257,491.5c0,0-7.31,4.29-8.57,4.71s-6.82,2.82-6.82,2.82l-6.26,1.89s-20.11,5.76-8.65,19c0,0-11.21-8.72-11.51-17.26,0,0-1.31-3.3,3.35-7.07,0,0,6.55-5.19,12.66-7.16l17.67-6.78s12.21-6.57,15.23-10A43,43,0,0,0,268.89,465Z"/><path class="cls-3" d="M244.87,504.67s-1.67,3.38,3.62,4.72a28.18,28.18,0,0,0,3.3,1.22c1.05.25,18.21,2.8,21.57,2.12l-9.59,12.6s-19-.79-23.32-8.59C240.45,516.74,237.44,511.78,244.87,504.67Z"/><path class="cls-2" d="M225.81,506.23s-.47,3.93,9.32,4.41L240.2,527s-4,.79-10-4-6.84-9.36-6.84-9.36A9.08,9.08,0,0,1,225.81,506.23Z"/><path class="cls-5" d="M56.7,318.59S57,334,76.06,333.68c17.53-.25,53.91,2.94,33.15,15.72a31,31,0,0,1-12,4.24c-13.91,1.88-51.5,7.79-29.83,25"/><path class="cls-5" d="M67.06,346s-42.83,11.73-10.37,29.73c0,0,12.28,5.73,21.28,5.73L69.51,367s-6.75-2.49-7.11-2"/><path class="cls-5" d="M99.79,351.13s7.09-2.18-7.37-5.18c-12-2.48-26,4.76-34.8-4.45a16.38,16.38,0,0,1-3.68-16c1.11-3.72,3.38-8.71,7.31-15.29,11-18.34,32.39-60,20.41-111.69-11.86-51.21-14.27-68.18-30.31-87.67C40.27,97.4,54.86,56.62,54.86,56.62L68,74.64S60.45,99,72.15,107.9c13.91,10.65,17,101.62,5.82,132.81-9.2,25.55-50.1,89.43-15.49,104.17"/><path class="cls-6" d="M82.46,350.56,95.61,348s5.88,5.71,4.09,10.9L87,361.75S87.51,356.25,82.46,350.56Z"/><path class="cls-6" d="M98.44,347.13l13.16-2.56s5.88,5.7,4.09,10.9L103,358.32S103.49,352.82,98.44,347.13Z"/><path class="cls-5" d="M164,358.32c7.07-11.65-7.63-10.83-18.91-11.15s-10.73-5.9-10.73-5.9l-12.08,4.07s-.19,5.16,6.14,9.1c7.14,4.44,29.83,1.44,22.85,6.58"/><path class="cls-5" d="M130.53,355.46s-14,5-6.57,7.13,39.53-2.16,44-6.13l6.18,10.59c-9.83,6.19-42.83,12.45-55.21,2.78s9-15.71,9-15.71"/><path class="cls-3" d="M158.15,254.89c.42-.62-22-9.29-29.49,12.2a75.07,75.07,0,0,0-2.56,15.05c-.36,7.47,0,23.21,2.61,31.53,4.45,14.14,8.32,17.52,9.95,29.42.84,6.14,0,28.4-19.52,36.63,0,0,8.31,7.92,17,5.51,9.69-2.69,14.68-16.17,16.24-22.06,2.11-8,3.89-22.28,1.62-31s-2.43-10-5.34-16.38-3.31-23.09-3.31-23.09S145.79,255.13,158.15,254.89Z"/><path class="cls-5" d="M168.76,269.51c-17.32-44-30.67,23.56-19,48.89,12.79,27.81-.45,62.24-11.52,66.22s-19.07-4.9-19.07-4.9,14.75-4.82,18.53-24.08c2.18-11.11,1.07-16.65-2.69-25.26-4.84-11-13.56-33.83-6.32-63.29,3-12,17.3-17.61,28.61-12.59.3.13,1.4.62,1.71.77"/><path class="cls-5" d="M147.78,270.36s2.18,3.41,2.49,3.88S164.65,282,171.42,271c0,0,18.57-58.62-2.66-98.86-20.13-38.18-11.49-42.44-11.49-42.44l14.62-4.43s-6.53,24.06-1.31,45.16c5,20.32-6.46,80-13.31,84.08"/><path class="cls-5" d="M98.44,369.24c-7.75,6.3,18.89,11.83,18.89,11.83l-11.8,13.81c-39.13-24,2.88-27.63,2.88-27.63l.06,11.47"/><path class="cls-5" d="M193,368.52s-10.13-10.79-.51-28.82c7.84-14.72,39.95-72.84,23.38-116.79l-13.26,23.65c4.06,4.1,3.43,13.34-5,37.26C187,314.12,173.85,350.9,189,365.54a15.21,15.21,0,0,0,6.62,3.93L208,372.73"/><path class="cls-5" d="M188.6,351.19a19,19,0,0,0,12.31,8.21c8.64,1.73,43.59,4.1,15.57,16.85,0,0-15.91-1.73-30.23,5V367.43a22.55,22.55,0,0,1,3.59-1"/><path class="cls-6" d="M200.06,373.28l13.16-2.56s5.87,5.71,4.09,10.9l-12.73,2.85S205.11,379,200.06,373.28Z"/><path class="cls-6" d="M216.05,369.85l13.15-2.56s5.88,5.7,4.09,10.9L220.56,381S221.1,375.54,216.05,369.85Z"/><path class="cls-5" d="M163.15,375.5c-15.76,12,39.18,14,39.18,14L181,402.19c-55.45-14.62-11.44-29.46-11.44-29.46l3.91,13.62"/><path class="cls-5" d="M262.83,334.34s-11.68,28.18-17.81,38-5.84,26,8.91,26.54,23.93-5.35,22.82-12.69-5.07-14.75-18.12-12.35"/><path class="cls-5" d="M263.39,395.4s-5.24,2.28-6.36-2.17-1.27-14.29,5.56-30.66-2.67-36.06-2.67-36.06S242,282,269.23,220.16s7-134-19.27-152.08H219.54S266,95.65,268,194a76,76,0,0,1-.63,11.48l-3.82,29.09"/><path class="cls-5" d="M269.23,220.16s10.75,82.16-6.4,114.18"/><path class="cls-5" d="M242.12,379.09S172.64,397,241.26,415l17.18-12s-55.76,0-33.71-17.76"/><path class="cls-5" d="M241.85,389.93s-17.61,6.57-14.7,9.27"/><path class="cls-5" d="M256.49,386.21s16.5-5.5,17.37,3.72"/><path class="cls-7" d="M289.68,437.68c2-6.08,20.61-10.3,20.61-10.3,35-11.54,42.07-26.91,30.07-39.74-11.35-12.14-36.57-4.35-46.79,0A52.68,52.68,0,0,0,281.9,394c-13.74,10.4-5.67,18.93-5.67,18.93,17.67,15,57-16.76,57-16.76L315.57,394s-51.41,24.58-35.22,1.24"/><path class="cls-7" d="M340.09,387.36c3.24,4.12-.07,11.13-3.18,14.05-4.69,4.4-15.51,10.17-26.88,14.49-16.76,6.37-26.74,19.94-17.59,23.82l-1.79,13.88s-34.77-15,17-36.71"/><path class="cls-7" d="M326.72,401s3.83,1,5.19,4.2"/><path class="cls-5" d="M198.59,484.38c-12.76,10.7-34.54,5.64-34.54,5.64l-16.89,11c28.12,10.19,70.06-15.6,42.77-22.27-25.92-6.33-27.65-22.49-26.93-27.1,1.47-9.35-10-28.9-10-28.9,3.63-3.37,6.14-16.38,6.14-16.38S174.9,430.33,174,447.06c-1,17.08,17,20.19,20,21.18,4,1.33,28-.62,2.68,22.28"/><path class="cls-6" d="M194.87,454.09l18.61-.46s-27,37.88-71.44,29.4l11.59-10.92S181.48,473.14,194.87,454.09Z"/><path class="cls-5" d="M213.41,479.93l-12.64,12.5c40.21-3.53,26.13-24.52,26.13-24.52l-15.55,6.4s6.69,14.58.37,16.48"/><path class="cls-5" d="M227.8,521s-13.13-10.2-12.64-19.91c.44-8.95,25.91-16.45,35.42-20.14a34.43,34.43,0,0,0,18.31-16l16.85-.5S267.57,491.58,238,500s-7.64,26.78,2.22,27.19l-5.12-16.58s-7.87-.49-9.59-4.12"/><path class="cls-6" d="M247.21,442.65s1.83,19.48-2.84,27.55c-5,8.72,3.35,19.25,42.59,14.1l10.14-10.4s-39.65,1.74-42.12-4.76,11.83-20.33,3.54-40.68Z"/><path class="cls-2" d="M276.14,497.64l-3,7.72S303.63,501.5,276.14,497.64Z"/><path class="cls-3" d="M273.36,483.94l-10.11,12.12s27.19,2.47,24.38,5.44c0,0,12.12-11,2.58-15A34.18,34.18,0,0,0,273.36,483.94Z"/><path class="cls-5" d="M276.14,497.64l-3,7.72c37.91-5.44-9.85-9.3-9.85-9.3l10.16-12.18s34.58-1.24,13.92,18"/><path class="cls-5" d="M245.55,504c-6.74,8.25,27.81,8.73,27.81,8.73l-9.59,12.6c-46.6-4.56-10.89-27.17-10.89-27.17l.9,12.58"/><path class="cls-5" d="M326.34,528.27s15.14-9.73,10.91-19.45a5.88,5.88,0,0,0-3.58-3.22,21.37,21.37,0,0,0-8.78-1"/><path class="cls-6" d="M307.91,516.7s-7.1-1.2,1.62-5c2.82-1.22,39.93-15.48,44.56-32.81l-16.79-.51s-10.28,13.4-38.11,23.41A20.06,20.06,0,0,0,294,504.7c-3.12,2.28-5.53,6.58,2.62,10.11a24.55,24.55,0,0,0,13.39,1.66c8.41-1.27,24.23-2.57,20.88,6.38a11.1,11.1,0,0,1-4.59,5.42,28.87,28.87,0,0,1-10,3.76c-8.77,1.67-22.52,1.41-29.76,10.82l-6.88-11.92s6.38-9.64,26.67-10.9a24.07,24.07,0,0,0,12-4c.21-.14.42-.28.63-.44"/><path class="cls-2" d="M319.5,466.73c-.88,1.15-24.8,6.51-10.58,18.32a106.26,106.26,0,0,0,16.32,8.56l7.92,3.32s12.31,4.71,12.77,6.55l11-11.16s-.4-3.19-5.67-4.51c-.49-.42-1.89-1.53-22.93-4.05,0,0-9.48-2.13-11.48-10C316.89,473.79,315.84,470.33,319.5,466.73Z"/><path class="cls-5" d="M304.54,478.38s-3.1-17.44,22.18-30.11c50.54-25.33,55-46.25,31.61-102.11-27.56-65.88-8.19-19.51-22.38-57.26L321.5,309.34s10.57,38.25,39.06,46.57c61.47,17.94,28.05,88.74-38.35,109.92-49.66,15.83,20.72,31.58,23.72,37.65l11-11s1.4-6-25.09-8.16a18.09,18.09,0,0,1-9.39-3.29c-3.31-2.46-9.2-7.78-3-14.31"/></svg>