<svg xmlns="http://www.w3.org/2000/svg" viewBox="0 0 2014.29 1146.27"><defs><style>.cls-1,.cls-5,.cls-9{fill:#fff;}.cls-10,.cls-17,.cls-2,.cls-4{fill:#f9e200;}.cls-11,.cls-12,.cls-13,.cls-14,.cls-15,.cls-16,.cls-3,.cls-6,.cls-7,.cls-8{fill:none;}.cls-3,.cls-5{stroke:#010001;}.cls-3{stroke-linecap:round;stroke-linejoin:round;}.cls-3,.cls-5,.cls-6{stroke-width:0.62px;}.cls-17,.cls-4{stroke:#000;}.cls-10,.cls-11,.cls-12,.cls-13,.cls-14,.cls-15,.cls-16,.cls-17,.cls-4,.cls-5,.cls-6,.cls-7,.cls-9{stroke-miterlimit:10;}.cls-4{stroke-width:0.62px;}.cls-6{stroke:#061308;}.cls-10,.cls-11,.cls-12,.cls-13,.cls-14,.cls-15,.cls-16,.cls-7,.cls-9{stroke:#1e120d;}.cls-7{stroke-width:0.8px;}.cls-10{stroke-width:0.61px;}.cls-11{stroke-width:0.69px;}.cls-12{stroke-width:0.73px;}.cls-13{stroke-width:0.73px;}.cls-14{stroke-width:0.75px;}.cls-15{stroke-width:0.8px;}.cls-16{stroke-width:0.83px;}.cls-17{stroke-width:0.71px;}</style></defs><title>ヘッダー</title><g id="レイヤー_3" data-name="レイヤー 3"><path class="cls-1" d="M812.43,369.23s37.9-8.24,59.39-2c0,0,61.34,66,76.81,109.13,0,0,5.78,16.71,9.18,30.88C957.81,507.29,911.36,426.67,812.43,369.23Z" transform="translate(-45.88 -46.25)"/><path class="cls-1" d="M1272,372.92l54.42,17.19s8.49,25.37,29.47,41.41c0,0,6.28,8.68-2.78,11.89s-13.75,0-13.75,0-19.84-.55-40.48-21.4S1273.66,375.24,1272,372.92Z" transform="translate(-45.88 -46.25)"/><path class="cls-2" d="M1722.14,816.54l-49.8,43s89.72-9.48,197.34,58.69C1869.68,918.23,1840.68,842.7,1722.14,816.54Z" transform="translate(-45.88 -46.25)"/><path class="cls-1" d="M1869.68,918.23s39.48,21.16,53.4,54.93,13.11,68.82,8,94.1l-59.81,7.37s15.92-44.43,14.11-68c0,0,.75-23.57-.54-31.71S1882.39,944.74,1869.68,918.23Z" transform="translate(-45.88 -46.25)"/><path class="cls-1" d="M1037,777.32l16.09,35.9s54.66,9,76.71-16.15c0,0,16-16.67,6.71-37.15,0,0-14-33.95-31,16.55C1105.51,776.47,1084.41,789.16,1037,777.32Z" transform="translate(-45.88 -46.25)"/><path class="cls-2" d="M1109,775.39s17.85-6.32,15.86-14.82C1124.9,760.57,1125.33,748.2,1109,775.39Z" transform="translate(-45.88 -46.25)"/><path class="cls-2" d="M1095.5,813.22s22.15-2.88,33.32-15.16c0,0-2,46-53,84,0,0-28.29,16.51-33.59,21.46s-20.92,16.27-13.48,37.9c0,0-20.36-30.44,9.78-65.72l10.18-7.33S1090,835.45,1095.5,813.22Z" transform="translate(-45.88 -46.25)"/><path class="cls-2" d="M1183.07,807s10.78,2.08,1.47,17.14c0,0-14.85,15.5-17,19.57s-4.64,8.22-3.51,11.54c0,0-29.25,11-22.08-16C1141.91,839.25,1155.84,820,1183.07,807Z" transform="translate(-45.88 -46.25)"/><path class="cls-1" d="M1110.54,971.3l-27.14,27.52s-89,.37-69.84-87.37c0,0,4.42-18.47,23.27-33.72,0,0-20.46,25.51-14,47.52s4.11,17.34,26.51,35.1C1049.31,960.35,1069.26,973.73,1110.54,971.3Z" transform="translate(-45.88 -46.25)"/><path class="cls-1" d="M1149.13,784.16l-1.38,28.54s56-19.77,36.79,11.46c0,0,19.49-21,14.66-35.16C1199.2,789,1193,774,1149.13,784.16Z" transform="translate(-45.88 -46.25)"/><path class="cls-1" d="M1141.33,840.05s-3.87,11.82,3.62,15.58,33.17.3,70.78-21.32l5.66,26.5s-29.27,29.46-63.67,22.5C1157.72,883.31,1119.63,874.46,1141.33,840.05Z" transform="translate(-45.88 -46.25)"/><path class="cls-2" d="M943,824.57s5.27,5.72-.75,25.89c0,0-84,126.41-94,152.34l-46.08,28s23.5-52.32,52.85-98.51c0,0,19.93-30.81,31.54-43.15S944.29,829.49,943,824.57Z" transform="translate(-45.88 -46.25)"/><path class="cls-1" d="M815,809.63l24.86,26.2s66.52-10.14,80.63-19.5c0,0,29.49-16.5,23.52,30.34,0,0,20.47-35.34,0-56.78,0,0-11.77-15.56-36.54-2.35C907.44,787.54,860.19,804.21,815,809.63Z" transform="translate(-45.88 -46.25)"/><path class="cls-3" d="M1105.4,776.86c12.56-34.56,22.29-31.09,28.22-22.2a33.91,33.91,0,0,1,2.15,33.66c-17.75,35.88-82.72,24.9-82.72,24.9L1037,777.32s52.32,15.84,85.23-9.69a7.15,7.15,0,0,0,2.26-8.48c-1-2.11-2.86-2.7-6.52,3.38" transform="translate(-45.88 -46.25)"/><path class="cls-3" d="M1095.5,813.22s-7,26.22-55.37,61.28-41.07,121.71,43.27,124.32l28.86-27.71s-46.55,6.24-75.24-19.7c-14.86-13.43-19.34-34.86-11.86-53.49,2.83-7,6.6-13.52,15-23.42" transform="translate(-45.88 -46.25)"/><path class="cls-3" d="M1128.82,798.06s-1.55,19.43-15.87,44.28a123.73,123.73,0,0,1-49.54,47.23c-19.42,10.31-46.47,29.66-34,53" transform="translate(-45.88 -46.25)"/><path class="cls-3" d="M1164,855.27c-1.53-9.9,13-22.94,19.2-29.52a19.55,19.55,0,0,0,4.63-8.1c6.25-22.39-40.07-4.95-40.07-4.95-.53-2.53,1.38-28.54,1.38-28.54s85.43-21.33,35.41,40" transform="translate(-45.88 -46.25)"/><path class="cls-3" d="M1183.07,807s-68.12,33.77-42.73,66.82c4.72,6.14,12.43,8.58,19.46,9.89,13.81,2.58,33.19.16,61.59-22.92l-5.66-26.5s-87.39,48.11-73.82,4.94" transform="translate(-45.88 -46.25)"/><path class="cls-3" d="M943.13,822.46c.85,5.45-7.79,15.85-51.18,60.9-44.06,45.75-89.73,147.47-89.73,147.47l46.08-28c9.09-28,88.51-141.37,94-152.34s6.07-46.92-21.82-34.13-80.63,19.5-80.63,19.5L815,809.63s70.29-11.08,96.62-24c29.68-14.5,56.9,17.8,30.69,64.78" transform="translate(-45.88 -46.25)"/><path class="cls-4" d="M903.14,728.18l-25.61,28.11s17.65,38.31-39.11,130.91L884,858.7S930.75,784.21,903.14,728.18Z" transform="translate(-45.88 -46.25)"/><path class="cls-2" d="M1347.63,682.23s46,9.31,56.14,20.44c0,0-89.93,14.05-105.47,40.24,0,0-1.87-21.75,29.34-48.73Z" transform="translate(-45.88 -46.25)"/><path class="cls-5" d="M950.78,746.94s8.87,14.45,0,41.64c0,0,22.82,22.53,38.89,53.12,0,0,5.5-27.19,2.11-41.22C991.78,800.48,969.8,762.66,950.78,746.94Z" transform="translate(-45.88 -46.25)"/><path class="cls-2" d="M1355.94,793.86s-12.7,7.78-16,10S1306.75,841,1300.09,858s-5.54,13.84-5.81,17.39,6.14,4.82,9.67,3.92,30.5-10.85,30.5-10.85-1.45-3,1.65-9.53,13.78-25.24,13.78-25.24,13.38-33.17,13.43-36.46S1364.1,788.83,1355.94,793.86Z" transform="translate(-45.88 -46.25)"/><path class="cls-1" d="M1339,803.46l1.6.64,15.37-10.24s6.7-3.65,7.12-.73a16.64,16.64,0,0,1-1.73,9.31c-1.41,2.61-7.83,9-25.19-.23,0,0-46.25-19.41-37-65.36a74.06,74.06,0,0,1,28.71-42.18s-27.48,15.79-39.61,35.25-19.94,36.58-2.49,71.13c0,0,11.8,22.58,41.57,33.76,0,0,42.6,13.59,50.36-19.55,0,0-2.69-37.23-20.25-29.28C1357.41,786,1341.61,799.5,1339,803.46Z" transform="translate(-45.88 -46.25)"/><path class="cls-1" d="M1294.44,874.57s.27,6.38,9.51,4.75,49.68-17.94,49.68-17.94,15.2-1.54,22.94,6,5,26.31-.44,30.19c0,0,.48-8.4-11-6.52s-17.23,8-26,9.24c0,0-18.78,5.34-36-6.77C1303,893.55,1291.71,887.69,1294.44,874.57Z" transform="translate(-45.88 -46.25)"/><path class="cls-2" d="M1224.39,1092l46.29,23.6s-10.33-47.57,32.63-102.41c0,0,14.38-18.78,33.33-28.84,0,0,31-24.37,36.45-37.25,0,0,38.32-57.54.18-82.08,0,0,14.79,10.42,2.28,33.67s-48.08,54.72-69.14,70S1227.11,1017.58,1224.39,1092Z" transform="translate(-45.88 -46.25)"/><path class="cls-6" d="M1298.3,742.91c17.72-26.07,105.47-40.24,105.47-40.24-15.09-12.74-56.14-20.44-56.14-20.44s-28.24,12.74-42.38,37.86c-14.34,25.49-6.31,57.88,17.71,74.46,7.55,5.22,16.71,10.17,26.15,12.09a11.93,11.93,0,0,0,14.36-10.6c.27-3.69-1.28-5.84-7.84-1.47" transform="translate(-45.88 -46.25)"/><path class="cls-6" d="M1331.47,691.94s-69.84,37.49-53.57,91.09c2.3,7.56,5.87,17.51,15.39,28.09,15.6,17.33,42.35,34.82,70.56,22.68a22.94,22.94,0,0,0,13.3-26.21c-3.16-13.7-9.81-30-22.85-19.58,0,0-9.81,9.1-15.33,15.45" transform="translate(-45.88 -46.25)"/><path class="cls-6" d="M1317,830.22s-35.25,46.58-18.41,60.06,34,14,52.34,6.17c0,0,23.76-13.49,25.22,1.15" transform="translate(-45.88 -46.25)"/><path class="cls-6" d="M1294.72,873.12s-2.06,11,15.31,4.43c8.68-3.28,33.68-12.3,40-15.23,9.13-4.25,58.33,0,32.41,68,0,0-10.5,30.08-53.88,60s-64,85.71-57.84,125.37l-46.29-23.6s-2.46-61.59,59.1-106.85c0,0,129-85.89,89.78-120.13" transform="translate(-45.88 -46.25)"/><path class="cls-6" d="M1347.8,837.72s-16.92,26-13.35,30.75" transform="translate(-45.88 -46.25)"/></g><g id="レイヤー_2" data-name="レイヤー 2"><path class="cls-2" d="M305.37,547.7,340.07,520s96.61-9,141.68,81.77C481.75,601.73,420.77,537.83,305.37,547.7Z" transform="translate(-45.88 -46.25)"/><path class="cls-2" d="M46.79,727.35l35.09,68.42s450.4,163,666.3,36.73l-53.74-49S474.84,934.36,46.79,727.35Z" transform="translate(-45.88 -46.25)"/><path class="cls-7" d="M46.79,727.84l35.09,68.41s450.4,162.56,666.3,36.25L694.44,784S474.84,934.85,46.79,727.84Z" transform="translate(-45.88 -46.25)"/><path class="cls-8" d="M613.29,666.9,643,596S477.24,146.55,241.5,62.94l-2.83,72.67S495.58,206.22,613.29,666.9Z" transform="translate(-45.88 -46.25)"/><path class="cls-9" d="M613.66,666.59l29.68-70.93S477.24,146.55,241.5,62.94L239,135.3S496,205.91,613.66,666.59Z" transform="translate(-45.88 -46.25)"/><path class="cls-10" d="M1441.66,372.92l56.08-2.43s86.16-104,165.92-114.37c109.41-14.25,170.46-209.45,170.46-209.45l-57.47,13.54s-32.91,145.06-123.7,165.7S1487.15,304.3,1441.66,372.92Z" transform="translate(-45.88 -46.25)"/></g><g id="レイヤー_1" data-name="レイヤー 1"><path class="cls-2" d="M946.91,471.43s12.68,34.32,11.75,41.06,16,63.48,16,63.48l14.38,35.71s5.73,18.23-.76,33.11c-6.59,15.08-17.21,19.13-17.21,19.13s24.34.86,30.2-2,27.82-9.31,24.7-37.26c0,0-8-27.8-14.58-35.38l-25-48.83S949.53,471.05,946.91,471.43Z" transform="translate(-45.88 -46.25)"/><path class="cls-2" d="M959.69,694.89s4.18,8.61,8.32,10c0,0,5.83,3.34,10,2.79a43.36,43.36,0,0,0,12-3.52c2.22-1.23,14.44-9.17,15.84-11.76s8.91-8,9.73-10.49c0,0,13.43-9.87,31.36-7.37,0,0-6.43,23.63-12.24,30.82s-8.61,11.65-19,16.45-25.32,1.69-28,.82-10.93-4.87-10.93-4.87S960.33,702.77,959.69,694.89Z" transform="translate(-45.88 -46.25)"/><path class="cls-2" d="M1290.35,572.42s13.79-12.82,22.17,2.7c0,0,3.5,6.94-12.87,7.14C1299.65,582.26,1292.58,576.71,1290.35,572.42Z" transform="translate(-45.88 -46.25)"/><path class="cls-2" d="M805.23,585.08s37.41-3.65,61.88-29.24c0,0,9.14-3.48,7.28.29-2.58.38-33.37,30.54-37.82,48.93-5.64,23.27-8.38,24.83-2,58.93C834.56,664,782.28,647.38,805.23,585.08Z" transform="translate(-45.88 -46.25)"/><path class="cls-2" d="M692.53,423.73l50.93-19.61S677,515,757.42,580.18C757.42,580.18,658.32,563.45,692.53,423.73Z" transform="translate(-45.88 -46.25)"/><path class="cls-2" d="M971.39,601.7s-2.18,13.61,19.7,17.06c0,0-1-10-6.73-15.4C984.36,603.36,974.61,601,971.39,601.7Z" transform="translate(-45.88 -46.25)"/><path class="cls-11" d="M869,555.54c-2.18-.52-3.66,2-3.66,2-48.19,43.59-106.23,24-106.23,24-81.86-61.53-15.68-177.4-15.68-177.4l-50.93,19.61S651,548.52,759.14,581.52" transform="translate(-45.88 -46.25)"/><path class="cls-11" d="M729.28,546.48s74.38,19.8,120.14-19.63c0,0,14.92,4.88,25,12.93a10.44,10.44,0,0,1,0,16.35C854.89,571.59,820.17,604,834.56,664" transform="translate(-45.88 -46.25)"/><path class="cls-11" d="M805.23,585.08S766.4,665.63,883,674.7c0,0,9.74-11.14,10.06-34.46,0,0-33.44,7.32-61.32-14" transform="translate(-45.88 -46.25)"/><path class="cls-11" d="M854.9,582.66s-5.9,8.88.34,12.82a7.66,7.66,0,0,0,6.06.85c3.52-1,10.9-2.08,14.65,3.76,0,0,18.11-5.9,23.89-16.13a16.85,16.85,0,0,0-14-6.45,14.61,14.61,0,0,1-6.06-1.13c-2.31-1-4.61-2.66-3.87-5.18C875.89,571.2,860.74,575.41,854.9,582.66Z" transform="translate(-45.88 -46.25)"/><path class="cls-11" d="M886.25,559.2s-6.83,8.11-1.08,12.8a7.64,7.64,0,0,0,5.91,1.6c3.59-.51,11-.72,14.1,5.55,0,0,18.59-3.63,25.44-13.1a17.07,17.07,0,0,0-13.18-8.16,14.6,14.6,0,0,1-5.88-1.87c-2.18-1.28-4.27-3.22-3.26-5.63C908.3,550.39,892.83,552.7,886.25,559.2Z" transform="translate(-45.88 -46.25)"/><path class="cls-12" d="M985.68,604c-7.39-4.66-37.93-1.75-37.93-1.75-8.34-10.81-10.88-26.79-10.88-26.79s25.38-2.37,37.8.5" transform="translate(-45.88 -46.25)"/><path class="cls-12" d="M960.31,601.64s-30.53,32.87,28,43.15" transform="translate(-45.88 -46.25)"/><path class="cls-12" d="M991.09,618.76c-24.1-5.89-19.7-17.06-19.7-17.06" transform="translate(-45.88 -46.25)"/><path class="cls-12" d="M1023.83,617.1s25.5-14.3,32.77-19a124.74,124.74,0,0,1-3.14,30.12s-15,10.6-30.16,15.61" transform="translate(-45.88 -46.25)"/><path class="cls-12" d="M971.42,663.7s17.59,1.64,28.23-1.48c12.45-3.65,37.1-16.6,21.16-52.81s-61.23-120.73-75.16-139.76" transform="translate(-45.88 -46.25)"/><path class="cls-12" d="M957.81,507.29s-46.66-81.48-145.38-138.06c0,0,30.65-8.23,59.39-2,0,0,76.07,76.6,86,140s30.84,102.89,30.84,102.89,13.86,33.76-17.23,53.52c-32,20.37,1.39,50.91,6.37,54.56,5.52,4,53.33,25.56,69.1-43.77,0,0-17-2.86-31.36,7.37,0,0-38.83,49.55-56.71,11.28" transform="translate(-45.88 -46.25)"/><path class="cls-12" d="M981.47,664s-14.13,25.72,9.31,39.69" transform="translate(-45.88 -46.25)"/><path class="cls-12" d="M1006.51,579.38s45.32,13,16.12,34.42" transform="translate(-45.88 -46.25)"/><path class="cls-13" d="M1173.27,652.09s-7.28,4.85-3.8,9.8a6.23,6.23,0,0,0,4.32,2.56c3,.4,8.91,1.88,9.9,7.48,0,0,15.57,1.26,23.18-4.65a13.81,13.81,0,0,0-8.57-9.32,12,12,0,0,1-4.23-2.77c-1.43-1.49-2.65-3.47-1.29-5.14C1192.78,650.05,1180,648.45,1173.27,652.09Z" transform="translate(-45.88 -46.25)"/><path class="cls-13" d="M1204.41,644.24s-7.73,4-4.86,9.35a6.29,6.29,0,0,0,4,3.08c2.88.74,8.57,2.94,8.91,8.65,0,0,15.22,3.13,23.41-1.87a14,14,0,0,0-7.4-10.34,12.16,12.16,0,0,1-3.86-3.27c-1.24-1.66-2.22-3.79-.69-5.3C1223.89,644.54,1211.45,641.4,1204.41,644.24Z" transform="translate(-45.88 -46.25)"/><path class="cls-2" d="M1080.27,473.9s14.15-13.29,32.85-20c0,0-11.78,119.26,16.11,141.85C1129.23,595.75,1059.4,569,1080.27,473.9Z" transform="translate(-45.88 -46.25)"/><path class="cls-2" d="M1171.26,616.94s-24.54.44-29.9,5.37c0,0,13.86,23.66,15.43,30.13,0,0,25.54-10.51,27-11.39S1190,625,1171.26,616.94Z" transform="translate(-45.88 -46.25)"/><path class="cls-2" d="M1124.88,635.89s-10.56,14.84-10.08,21.08c0,0-.7,25.57,22.41,30.71,0,0,1.19-12,5.93-18.49A66.09,66.09,0,0,1,1124.88,635.89Z" transform="translate(-45.88 -46.25)"/><path class="cls-2" d="M1266.27,592.84s6.58,16.43,27.71,17.23c0,0-16.28,50.7,6.45,60.13,0,0-33.74-2.15-41.34-25.78C1259.09,644.42,1251.51,620.23,1266.27,592.84Z" transform="translate(-45.88 -46.25)"/><path class="cls-2" d="M1258.68,526.85s5.12-52.61,36.4-74.84c5.66-4,15.79-6.28,21.77-6.34,15-.18,48.65-1.21,38.69-14.6,3.64.16,13.67,31.67-19.6,40-1.33.34-7.18.56-8.5.17C1309.79,466.07,1266.83,475.48,1258.68,526.85Z" transform="translate(-45.88 -46.25)"/><path class="cls-2" d="M1393.71,580.48s11.07-1.91,14.29-22.53c0,0-11-17.48,3.46-23.16l.78-13.86s23.79-15.3,31.11-15.41c0,0,3.35,43-1.69,54,0,0-2.33,88.45,11.62,115.14,0,0-5.82-28.08,4-64s14.49-35.35,14.38-46.39,8.62-46.85-20.58-60.32-50.85-.84-58.82,6.11S1351.85,545,1393.71,580.48Z" transform="translate(-45.88 -46.25)"/><path class="cls-13" d="M1114.2,562.37c3.09,5.9,6.35,3,62.19,30s7.35,48.64,7.35,48.64c8.27-18.61-11-23.28-48.58-41.2s-22-146-22-146c-12.82,2-32.85,20-32.85,20s-27,85.08,53,124.94" transform="translate(-45.88 -46.25)"/><path class="cls-13" d="M1171.26,616.94s-21.88,1.17-29.9,5.37c0,0,15.31,24.64,15.43,30.13,0,0,24-9.49,27-11.39" transform="translate(-45.88 -46.25)"/><path class="cls-13" d="M1114.84,654.55c-2.37,60.33,97.89,26.58,97.89,26.58-.42,3.25-18.61,31.94-18.61,31.94s-41.34,26.63-69.51-8.91.27-68.27.27-68.27,6.22,25.3,18.26,33.3c0,0-7.46,13.61-5.49,18.63" transform="translate(-45.88 -46.25)"/><path class="cls-14" d="M1257.22,542.17s2.87-61.4,33.13-87c7.2-6.08,21.2-9.89,30.62-9.67,14,.34,34.92-3.73,34.89-7.68" transform="translate(-45.88 -46.25)"/><path class="cls-14" d="M1341.81,443.67a59,59,0,0,1-28.87-10c-23-16-32.34-34.07-41-60.75h0l54.42,17.19A85.26,85.26,0,0,0,1339.47,414s9.44,13.53,16.07,17c3.81,2,5.92,11.93,2.45,22.24-4.26,12.68-18.73,20.25-31.83,17.59C1302.68,466.12,1267,483,1259.57,522c-5.56,29.16-.39,54.93,6.7,70.85,6.72,15.1,24.39,21.8,39,14.13,9.44-5,17.51-16,18-39.09.07-3.34-2.65-5.49-6-5.83-6-.61-16.54.32-27.63,9.14" transform="translate(-45.88 -46.25)"/><path class="cls-14" d="M1277.3,487.83s-2.63,80.15,22.35,94.43c0,0,16.07.44,12.87-7.14" transform="translate(-45.88 -46.25)"/><path class="cls-14" d="M1266.08,592.41s-35.87,70.36,33.23,77.83a21.65,21.65,0,0,0,3.22.08c8.87-.42,48.36-3.75,63.28-29.8,0,0-20.35-8.42-32.47-10.26,0,0-19.81,22.18-45.45,17.7" transform="translate(-45.88 -46.25)"/><path class="cls-14" d="M1294,610.07s-17.48,47.58,6.77,60.31" transform="translate(-45.88 -46.25)"/><path class="cls-14" d="M1457.23,610.7c39.46,187.85,214.66,119.87,214.66,119.87l42,30.95c-169.38,67.17-230.74-25-251-61.54-19.73-35.61-12.89-73.69,2.8-114.6,9.5-24.77,7.91-44.82,5.17-56.78a35.44,35.44,0,0,0-14.34-21.18c-12.36-8.58-34.88-17.63-62.28,1.19-21.89,15-23.41,32.34-19.84,45.48,3.4,12.53,12.22,22.84,23.68,28.95,57.72,30.79,45.2-77.52,45.2-77.52-10.93.56-31.11,15.41-31.11,15.41s-.88,57.31-18.53,59.55" transform="translate(-45.88 -46.25)"/><path class="cls-14" d="M1442.74,553.74s-6.59,83.6,12.83,129.31" transform="translate(-45.88 -46.25)"/><path class="cls-14" d="M1411.46,534.79s-14.69,4-3.46,23.16" transform="translate(-45.88 -46.25)"/><path class="cls-7" d="M305.37,547.7,340.07,520s91.34-5.53,134.6,68.53S514,769.86,514,769.86l46.22-25.32S525.11,530.61,305.37,547.7Z" transform="translate(-45.88 -46.25)"/><path class="cls-14" d="M1722.14,816.54l-50.8,43.86c-5.4-3.22,105.53-12.13,219.42,72.48,61.73,45.86,40.31,134.38,40.31,134.38l-59.81,7.37S1954.83,871.43,1722.14,816.54Z" transform="translate(-45.88 -46.25)"/><path class="cls-9" d="M1744.77,585.08l54.39,25.08s207.58-67.52,260.23-189.38l-72.23,5.9S1987.66,471.87,1744.77,585.08Z" transform="translate(-45.88 -46.25)"/><path class="cls-2" d="M509.13,996.43l51.27,38.8S578,1081,612.79,1118.45C612.79,1118.45,543.18,1088.67,509.13,996.43Z" transform="translate(-45.88 -46.25)"/><path class="cls-15" d="M949.43,1146.62l-48.62-15.83c-1.35,1-305,96.76-391.68-134.36l51.27,38.8S653.36,1294.3,949.43,1146.62Z" transform="translate(-45.88 -46.25)"/><path class="cls-16" d="M1089.47,114.14l55-18s-84.61,193-62.89,261l-40.29,56.64S1000.33,372.08,1089.47,114.14Z" transform="translate(-45.88 -46.25)"/><path class="cls-17" d="M560.22,71.19l45.11-24.52s48.75,35.63,62.73,88.91S672.49,225.4,712.65,263l-45.4,26.5s-27.37-28-34.18-113.45C633.07,176.07,628.4,113.79,560.22,71.19Z" transform="translate(-45.88 -46.25)"/></g></svg>