<svg id="レイヤー_1" data-name="レイヤー 1" xmlns="http://www.w3.org/2000/svg" viewBox="0 0 79.16 79.16"><defs><style>.cls-1{fill:#fff;}</style></defs><title>アートボード 1</title><g id="_6p" data-name=" 6p"><path class="cls-1" d="M79.16,13V25.12a.49.49,0,0,1-.46.45H66.57a.49.49,0,0,1-.46-.45V12.9a.49.49,0,0,1,.46-.45v.1H78.7A.49.49,0,0,1,79.16,13Z"/><path class="cls-1" d="M65.92,26.15V38.38a.49.49,0,0,1-.46.46H53.21a.48.48,0,0,1-.44-.46h.1V26.15a.49.49,0,0,1,.47-.44H65.46A.48.48,0,0,1,65.92,26.15Z"/><path class="cls-1" d="M52.77,52.52V64.77a.5.5,0,0,1-.46.46H40.18a.48.48,0,0,1-.46-.46V52.52a.48.48,0,0,1,.46-.44H52.31A.48.48,0,0,1,52.77,52.52Z"/><path class="cls-1" d="M52.67,13V25.24a.51.51,0,0,1-.47.47H40a.49.49,0,0,0-.45.44V51.53a.5.5,0,0,1-.46.47H26.82a.49.49,0,0,1-.44-.47v-26H.56a.49.49,0,0,1-.47-.45V12.9a.49.49,0,0,1,.47-.45H40.08v.1H52.2A.49.49,0,0,1,52.67,13Z"/></g></svg>